<?xml version="1.0" encoding="UTF-8" standalone="no"?>
<!DOCTYPE svg PUBLIC "-//W3C//DTD SVG 1.1//EN" "http://www.w3.org/Graphics/SVG/1.1/DTD/svg11.dtd">
<svg width="100%" height="100%" viewBox="0 0 945 304" version="1.1" xmlns="http://www.w3.org/2000/svg" xmlns:xlink="http://www.w3.org/1999/xlink" xml:space="preserve" xmlns:serif="http://www.serif.com/" style="fill-rule:evenodd;clip-rule:evenodd;stroke-linejoin:round;stroke-miterlimit:2;">
    <g transform="matrix(1,0,0,1,-118.11,-685.158)">
        <rect id="Artboard1" x="0" y="0" width="1181.1" height="1181.1" style="fill:none;"/>
        <g id="Artboard11" serif:id="Artboard1">
            <g transform="matrix(4.21777,0,0,4.21777,-464.388,-288.301)">
                <g>
                    <g transform="matrix(0.24,0,0,0.24,0,0)">
                        <path d="M733.212,1086.71C740.725,1068.94 748.262,1051.11 755.733,1033.37C761.817,1020.13 768.858,1007.35 774.512,993.925C774.667,993.663 774.804,993.387 774.942,993.121C774.971,993.067 774.983,993.025 774.996,992.971C796.2,993.608 817.1,988.742 837.696,984.183C859.896,980.079 881.929,975.354 904.05,970.825C922.871,967.25 941.896,963.438 961.175,965.529C997.983,970.367 1032.66,991.833 1053.43,1022.57C1053.39,1022.68 1053.35,1022.81 1053.32,1022.93C1054.8,1079.21 1050.23,1135.7 1046.88,1191.97C1037.85,1163.71 1013.16,1141.34 987.812,1126.95C961.992,1112.27 934.121,1106.92 905.683,1106.92C864.471,1106.92 822.062,1118.17 783.05,1128.5C766.529,1132.82 749.775,1136.27 732.729,1138.21C725.883,1138.55 718.812,1139.93 711.925,1139.8C712.192,1138.88 712.479,1138.03 712.854,1137.46C719.3,1120.4 726.021,1103.45 733.212,1086.71ZM1465.25,1190.93C1471.45,1204.41 1477.63,1217.91 1483.84,1231.38C1479.42,1231.28 1474.92,1231.19 1470.45,1231.4C1416.89,1228.47 1363.2,1228.42 1309.74,1223.65C1263.99,1219.53 1218.02,1217.4 1172.05,1217.95C1157.6,1218.17 1143.02,1218.87 1128.69,1221.04C1117.53,1222.64 1107.07,1227.76 1101.34,1237.74C1095.35,1229.83 1085.95,1225.3 1077.28,1220.81C1074.4,1218.98 1071.36,1217.47 1068.25,1216.23C1073.86,1211.4 1080.33,1207.46 1086.68,1203.51C1111.68,1189.36 1140.49,1182.43 1169.22,1182.43L1169.3,1182.43C1199.88,1180.87 1230.15,1184.54 1260.32,1189.07C1260.05,1188.96 1259.78,1188.86 1259.51,1188.77C1256.46,1187.6 1253.32,1186.77 1250.21,1185.8C1247.01,1184.8 1243.75,1184.03 1240.47,1183.35C1238.79,1183 1237.14,1182.57 1235.47,1182.24C1234.51,1182.03 1233.54,1181.85 1232.57,1181.65C1223.67,1180.59 1214.75,1179.7 1205.78,1179.12C1164.78,1177.12 1121.8,1178.84 1085.47,1200.13C1084.96,1200.5 1083.75,1201.25 1082.13,1202.24C1083.27,1201.28 1084.42,1200.35 1085.57,1199.44C1126.54,1170.3 1173.71,1159.61 1223.51,1165.37C1265.65,1169.97 1305.35,1186.3 1346.9,1194.02C1355.64,1195.46 1364.44,1196.75 1373.25,1197.94C1353.18,1197.32 1333.08,1195.47 1313.12,1193.45C1302.9,1192.08 1292.69,1190.51 1282.49,1188.92C1284.9,1189.71 1287.31,1190.48 1289.75,1191.19C1289.67,1191.17 1289.6,1191.15 1289.52,1191.13C1292.29,1191.92 1295.06,1192.78 1297.9,1193.4C1299.4,1193.71 1300.89,1194.02 1302.38,1194.38C1304.01,1194.77 1305.67,1195.1 1307.34,1195.38C1307.25,1195.36 1307.19,1195.36 1307.1,1195.35C1308.75,1195.61 1310.42,1195.92 1312.05,1196.25C1313.88,1196.61 1315.7,1196.97 1317.54,1197.26C1318.35,1197.39 1319.17,1197.53 1319.99,1197.66C1328.99,1198.66 1338.02,1199.49 1347.06,1200.14C1348.54,1200.1 1350.01,1200.06 1351.48,1200.05C1351.92,1200.03 1352.33,1200.23 1352.63,1200.52C1364.35,1201.25 1376.08,1201.67 1387.8,1201.67C1391.54,1201.67 1395.3,1201.62 1399.04,1201.54C1409.96,1201.28 1420.77,1200 1431.53,1198.3C1431.73,1198.23 1431.94,1198.17 1432.15,1198.12C1432.55,1198.03 1432.95,1197.88 1433.34,1197.75C1434.08,1197.5 1434.77,1197.18 1435.5,1196.94C1436.25,1196.71 1437.01,1196.48 1437.75,1196.21C1438.03,1196.1 1438.29,1195.97 1438.57,1195.85C1439.07,1195.65 1439.58,1195.47 1440.08,1195.25C1441.48,1194.55 1442.89,1193.81 1444.28,1193.08C1444.7,1192.84 1445.11,1192.58 1445.53,1192.31C1445.41,1192.34 1445.29,1192.37 1445.17,1192.38C1445.32,1192.3 1445.47,1192.22 1445.61,1192.12C1445.62,1192.12 1445.63,1192.1 1445.65,1192.09C1445.8,1192.01 1445.95,1191.92 1446.09,1191.83C1446.48,1191.59 1446.87,1191.36 1447.25,1191.09C1447.4,1191.01 1447.53,1190.91 1447.66,1190.82C1443.97,1184.37 1440.28,1177.94 1436.6,1171.5C1436.28,1171.28 1436.02,1170.96 1435.81,1170.62C1435.39,1169.96 1435.02,1169.28 1434.63,1168.6C1433.76,1167.05 1432.76,1165.54 1431.79,1164.04C1430.85,1162.59 1429.92,1161.12 1428.93,1159.69C1427.99,1158.28 1427.01,1156.89 1426.09,1155.46C1426.13,1155.53 1426.17,1155.6 1426.22,1155.67C1425.07,1153.91 1423.82,1152.22 1422.59,1150.53C1421.69,1149.34 1420.84,1148.12 1420.04,1146.87L1420.01,1146.84C1420,1146.84 1420,1146.83 1420,1146.82C1419.98,1146.8 1419.97,1146.78 1419.95,1146.75C1419.97,1146.78 1419.97,1146.79 1419.97,1146.8C1419.82,1146.57 1419.66,1146.33 1419.5,1146.1C1419.41,1146.12 1419.33,1146.14 1419.25,1146.15C1419.59,1147.05 1419.94,1147.97 1420.31,1148.87C1420.48,1149.24 1420.65,1149.61 1420.83,1149.98C1420.83,1149.98 1420.84,1149.98 1420.84,1149.99L1420.84,1150.02C1421.19,1150.79 1421.53,1151.57 1421.85,1152.36C1422.03,1152.79 1422.18,1153.23 1422.37,1153.65C1422.46,1153.88 1422.58,1154.12 1422.68,1154.35C1423.14,1155.15 1423.58,1155.93 1424.04,1156.73C1429.79,1166.79 1435.55,1176.8 1441.3,1186.85C1441.5,1187.09 1441.67,1187.34 1441.78,1187.63C1441.78,1187.64 1441.8,1187.66 1441.8,1187.67C1441.83,1187.77 1441.85,1187.88 1441.86,1187.99C1441.95,1188.56 1441.74,1189.17 1441.31,1189.57C1441.21,1189.65 1441.1,1189.73 1440.99,1189.83C1440.63,1190.17 1440.23,1190.43 1439.78,1190.61C1439.83,1190.64 1439.85,1190.68 1439.9,1190.72C1438.9,1191.15 1437.88,1191.57 1436.76,1191.94C1436.45,1192.01 1436.09,1192.09 1435.73,1192.2C1435.24,1192.3 1434.73,1192.45 1434.21,1192.6C1433.26,1192.88 1432.3,1193.17 1431.46,1193.1C1406.72,1195.45 1381.66,1197.1 1357.03,1191.98C1306.16,1184.69 1258.07,1161.58 1206.09,1160.74C1168.15,1158.44 1129.57,1167.85 1097.21,1187.86C1084.74,1194.92 1073.42,1203.87 1064.01,1214.72C1055.07,1211.91 1045.5,1211.13 1036.1,1211.67C1035.29,1211.72 1034.49,1211.78 1033.7,1211.88C1033.55,1211.94 1033.39,1212.01 1033.24,1212.06C1032.94,1212.19 1032.63,1212.24 1032.33,1212.33C1031.98,1212.45 1031.62,1212.62 1031.26,1212.75C1031,1212.88 1030.7,1212.93 1030.43,1212.93C1030.1,1212.93 1029.76,1212.84 1029.46,1212.66C1029.39,1212.67 1029.32,1212.69 1029.25,1212.71C1029.28,1212.66 1029.29,1212.6 1029.32,1212.55C1029.28,1212.52 1029.24,1212.49 1029.2,1212.45C1028.75,1212.02 1028.62,1211.47 1028.71,1210.91C1028.7,1210.88 1028.71,1210.85 1028.71,1210.83L1028.71,1210.8C1028.71,1210.8 1028.71,1210.79 1028.72,1210.79L1028.72,1210.77L1028.74,1210.76L1028.72,1210.76C1028.72,1210.73 1028.72,1210.7 1028.74,1210.67L1028.74,1210.58C1028.71,1210.57 1028.7,1210.55 1028.67,1210.54C1018.12,1150.52 953.621,1123.02 897.871,1127.97C850.346,1133.01 806.708,1154.17 760.196,1163.83C759.629,1163.82 759.058,1163.95 758.588,1164.17C754.875,1164.91 751.146,1165.59 747.392,1166.17C726.008,1171.01 704.154,1175.14 682.354,1172.37C684.279,1170.36 686.204,1168.38 688.133,1166.4C688.588,1165.79 689.058,1165.19 689.517,1164.58C690.667,1163 691.833,1161.42 692.967,1159.84C693.913,1158.54 694.921,1157.28 695.908,1156C696.779,1154.84 697.596,1153.63 698.429,1152.44C698.388,1152.5 698.346,1152.57 698.292,1152.62C699.317,1151.12 700.288,1149.61 701.271,1148.09C701.271,1148.1 701.254,1148.12 701.254,1148.13C701.354,1147.97 701.45,1147.8 701.562,1147.63C697.804,1151.43 693.992,1155.19 690.333,1159.08C688.367,1161.01 686.454,1162.99 684.542,1164.97C689.671,1155.21 694.813,1145.44 699.954,1135.69C706.479,1123.28 712.996,1110.88 719.521,1098.48C725.592,1086.94 731.675,1075.38 737.746,1063.83C740.075,1059.4 742.417,1054.95 744.758,1050.51C734.779,1073.17 725.425,1096.16 716.071,1119.1C713.45,1125.45 711.108,1131.92 708.713,1138.38C708.6,1138.73 708.492,1139.1 708.367,1139.45C708.35,1139.5 708.338,1139.55 708.325,1139.6C708.254,1139.83 708.171,1140.05 708.1,1140.29C708.075,1140.4 708.046,1140.53 708.004,1140.65C707.854,1141.31 707.688,1141.97 707.521,1142.62L707.521,1142.63L707.533,1142.63C707.754,1142.64 707.962,1142.67 708.183,1142.7C708.242,1142.7 708.283,1142.7 708.325,1142.71C708.338,1142.71 708.35,1142.71 708.367,1142.73C708.492,1142.74 708.617,1142.74 708.725,1142.77C708.85,1142.8 708.975,1142.81 709.1,1142.83C709.683,1142.88 710.279,1142.93 710.858,1142.99C711.275,1143.03 711.692,1143.08 712.108,1143.12L712.108,1143.13C712.258,1143.15 712.413,1143.2 712.55,1143.25C712.579,1143.27 712.604,1143.27 712.646,1143.28C718.483,1142.99 724.317,1142.63 730.15,1142.03C758.062,1139.48 784.992,1131.58 812.012,1124.45C856.654,1114.14 903.288,1104.21 948.787,1115.34C982.546,1123.2 1012.76,1143.96 1033.39,1171.72C1039.02,1181.31 1044.12,1191.61 1045.97,1202.69C1046.05,1202.97 1046.12,1203.25 1046.2,1203.53L1046.2,1203.57C1046.28,1203.88 1046.37,1204.19 1046.45,1204.5C1046.57,1204.98 1046.68,1205.47 1046.8,1205.94C1046.86,1206.17 1046.9,1206.41 1046.95,1206.63C1047.02,1206.96 1047.07,1207.3 1047.14,1207.63C1047.21,1208.04 1047.28,1208.45 1047.35,1208.86C1047.42,1209.35 1047.49,1209.83 1047.56,1210.32C1047.58,1210.54 1047.61,1210.75 1047.64,1210.95C1047.64,1210.95 1047.64,1210.94 1047.65,1210.94L1047.65,1210.92C1047.72,1210.79 1047.81,1210.65 1047.89,1210.5C1047.97,1210.36 1048.05,1210.2 1048.12,1210.07C1048.4,1209.58 1048.68,1209.1 1048.97,1208.61C1049.25,1208.12 1049.54,1207.63 1049.83,1207.15C1049.9,1207.03 1049.97,1206.92 1050.04,1206.8C1050.08,1206.73 1050.13,1206.64 1050.17,1206.58C1050.26,1206.43 1050.34,1206.3 1050.44,1206.16C1053.74,1200.46 1057.9,1195.17 1061.95,1189.98C1102.56,1145.04 1170.05,1132.51 1228.22,1138.86C1273.85,1144.35 1317.51,1161.55 1363.65,1164.01C1379.33,1164.48 1395.98,1167.87 1411.14,1162.92C1411.2,1162.89 1411.24,1162.88 1411.28,1162.86C1412.65,1165.07 1416.39,1167.42 1417.48,1168.86C1418.17,1169.42 1418.85,1170 1419.53,1170.58C1421.01,1171.76 1422.52,1172.94 1423.99,1174.2L1424,1174.21C1424.04,1174.24 1424.1,1174.3 1424.14,1174.33L1424.14,1174.34L1424.15,1174.34C1424.17,1174.34 1424.17,1174.35 1424.18,1174.35C1424.2,1174.37 1424.21,1174.38 1424.22,1174.4C1424.24,1174.41 1424.25,1174.42 1424.26,1174.42C1424.29,1174.45 1424.3,1174.46 1424.35,1174.5C1424.35,1174.5 1424.36,1174.52 1424.38,1174.52C1424.4,1174.55 1424.43,1174.58 1424.47,1174.6C1424.47,1174.62 1424.49,1174.62 1424.49,1174.62L1424.49,1174.63L1424.5,1174.63C1424.53,1174.64 1424.54,1174.66 1424.57,1174.68L1424.58,1174.68C1424.58,1174.7 1424.6,1174.71 1424.61,1174.71C1426.03,1175.88 1427.4,1177.08 1428.81,1178.25C1429.1,1178.5 1429.39,1178.73 1429.68,1178.98C1429.42,1178.53 1429.15,1178.07 1428.89,1177.61L1428.89,1177.6C1428.8,1177.43 1428.68,1177.28 1428.59,1177.12C1428.58,1177.11 1428.58,1177.11 1428.56,1177.1C1428.55,1177.08 1428.55,1177.08 1428.55,1177.07L1428.53,1177.05L1428.52,1177.04C1428.5,1177.03 1428.5,1177.01 1428.49,1177L1428.49,1176.99C1427.45,1175.55 1426.4,1174.15 1425.36,1172.75C1425.3,1172.67 1425.26,1172.62 1425.22,1172.56C1424.24,1171.26 1423.13,1170.04 1422.1,1168.78C1421.46,1168 1420.83,1167.22 1420.19,1166.45C1418.39,1164.78 1416.6,1163.08 1414.81,1161.4C1414.84,1161.38 1414.85,1161.38 1414.88,1161.37C1414.84,1161.28 1414.81,1161.19 1414.77,1161.1C1408.95,1150.42 1403.61,1139.48 1398.47,1128.44C1386.39,1101.22 1374.07,1074.11 1361.35,1047.2C1367.11,1057.26 1372.88,1067.33 1378.64,1077.4C1383.95,1086.68 1389.27,1095.97 1394.59,1105.27C1395.28,1106.21 1395.99,1107.15 1396.68,1108.1C1397.88,1109.72 1398.92,1111.4 1399.93,1113.12C1400.1,1113.4 1400.25,1113.67 1400.4,1113.93C1400.38,1113.89 1400.37,1113.86 1400.36,1113.83C1401.65,1115.91 1403.13,1117.89 1404.61,1119.85C1404.99,1120.33 1405.39,1120.8 1405.79,1121.26C1406.43,1122.02 1407,1122.83 1407.58,1123.62C1408.31,1124.46 1409.03,1125.31 1409.73,1126.19C1410.2,1126.8 1410.68,1127.41 1411.21,1128C1411.82,1128.69 1412.33,1129.46 1412.93,1130.18C1411.17,1127.08 1409.39,1123.99 1407.62,1120.9C1400,1107.57 1392.36,1094.22 1384.73,1080.89C1377.1,1067.56 1369.47,1054.24 1361.85,1040.91C1358.19,1034.53 1354.54,1028.17 1350.9,1021.78C1349.07,1018.6 1347.24,1015.39 1345.41,1012.2C1345.27,1011.97 1345.15,1011.75 1345,1011.51C1364.6,1027.6 1382.91,1045.41 1404.52,1058.72C1405.82,1061.55 1407.12,1064.42 1408.45,1067.27C1414.78,1081.03 1421.09,1094.79 1427.41,1108.55C1433.72,1122.28 1440.02,1136.02 1446.33,1149.74C1452.63,1163.48 1458.94,1177.21 1465.25,1190.93ZM969.104,1153.73C985.246,1160.05 999.008,1171.23 1009.85,1184.69C1017.6,1192.87 1022.6,1203.01 1025.76,1213.77C1018.97,1216.11 1012.76,1220.18 1007.2,1224.7C999.967,1229.62 993.271,1235.92 986.938,1242.12C984.583,1239.09 981.812,1236.4 978.692,1234.12C963.767,1224.69 946.542,1222.47 929.05,1222.47C916.204,1222.47 903.204,1223.66 890.883,1224.09C869.25,1224.17 847.312,1226.21 825.708,1228.08C786.75,1229.95 747.808,1232.16 708.838,1233.79L708.713,1233.79C708.367,1233.78 708.017,1233.78 707.671,1233.78C707.033,1233.78 706.396,1233.78 705.758,1233.76C705.442,1233.75 705.138,1233.82 704.871,1233.96C698.971,1234.2 693.079,1234.43 687.175,1234.64C662.229,1235.47 637.479,1238.62 612.504,1238.18C608.5,1238.25 604.55,1238.82 600.558,1238.63C602.625,1236.07 604.687,1233.52 606.767,1230.95C606.838,1230.85 606.904,1230.74 606.975,1230.65C607.654,1229.73 608.375,1228.85 609.042,1227.93C609.817,1226.85 610.563,1225.74 611.312,1224.65C612.075,1223.54 612.837,1222.44 613.529,1221.29C614.875,1219.05 616.192,1216.78 617.479,1214.49C617.896,1213.7 618.354,1212.93 618.783,1212.17C619.588,1210.66 620.321,1209.15 621.083,1207.62C614.971,1215.18 608.858,1222.72 602.746,1230.27C605.479,1224.98 608.238,1219.68 610.979,1214.38C617.312,1202.12 623.646,1189.89 629.996,1177.64C636.287,1165.48 642.579,1153.33 648.871,1141.17C655.3,1128.76 661.729,1116.35 668.162,1103.94C674.688,1091.32 681.217,1078.7 687.758,1066.08C687.812,1065.98 687.854,1065.87 687.867,1065.75C687.937,1065.71 687.992,1065.67 688.05,1065.62C696.667,1057.19 705.275,1048.77 713.896,1040.34C720.796,1033.59 727.7,1026.84 734.613,1020.08C728.404,1031.15 722.183,1042.22 715.975,1053.31C708.492,1066.66 701.004,1079.99 693.508,1093.33C685.929,1106.85 678.346,1120.36 670.767,1133.87C664.087,1145.78 657.392,1157.7 650.725,1169.6C650.312,1170.57 649.842,1171.53 649.383,1172.47C649.342,1172.54 649.3,1172.6 649.271,1172.67C649.217,1172.77 649.175,1172.88 649.121,1172.98L649.104,1173C648.092,1174.24 647.067,1175.5 646.054,1176.75C645.792,1177.17 645.517,1177.58 645.254,1177.98C644.075,1179.81 642.758,1181.52 641.483,1183.26C640.858,1184.11 640.237,1184.94 639.6,1185.77C639.004,1186.58 638.446,1187.42 637.879,1188.25C636.771,1189.86 635.65,1191.51 634.554,1193.15C634.542,1193.19 634.513,1193.23 634.483,1193.25L634.483,1193.23C633.183,1195.18 631.908,1197.14 630.617,1199.09C631.379,1198.27 632.129,1197.42 632.892,1196.6C633.821,1195.6 634.787,1194.61 635.758,1193.66C637.033,1192.37 638.267,1191.04 639.517,1189.7C641.025,1188.03 642.562,1186.38 644.129,1184.78C646.458,1181.89 648.8,1179.01 651.129,1176.12C652.083,1176.17 653.029,1176.18 653.971,1176.18C657.325,1176.18 660.663,1175.99 664.017,1175.81C667.967,1175.57 671.946,1175.35 675.921,1175.45C676.408,1175.36 677.058,1175.39 677.75,1175.42C678.196,1175.43 678.65,1175.46 679.096,1175.45L679.137,1175.45C679.192,1175.48 679.233,1175.49 679.288,1175.5C703.112,1179.41 727.546,1174.2 750.967,1169.03C753.833,1168.59 756.692,1168.08 759.529,1167.52C761.971,1167.71 765.088,1166.38 767.471,1166.2C789.771,1161.96 811.642,1156.25 833.979,1152.25C878.025,1140.88 926.1,1135.65 969.104,1153.73ZM698.137,1092.34C705.704,1078.87 713.271,1065.4 720.825,1051.91C728.212,1038.75 735.612,1025.57 743,1012.39C748.888,1012.47 754.804,1012.4 760.696,1012.58C758.075,1017.55 755.471,1022.53 752.85,1027.5C746.533,1039.49 740.242,1051.5 733.921,1063.48C727.85,1075.01 721.779,1086.58 715.708,1098.12C709.112,1110.63 702.546,1123.15 695.963,1135.66C691.429,1144.28 686.9,1152.88 682.367,1161.5C682.2,1161.91 682.033,1162.3 681.838,1162.68C681.367,1163.65 680.842,1164.58 680.329,1165.53C680.317,1165.55 680.317,1165.57 680.3,1165.59C680.287,1165.59 680.287,1165.61 680.287,1165.61C680.287,1165.61 680.287,1165.62 680.275,1165.62L680.275,1165.63C680.258,1165.63 680.258,1165.65 680.258,1165.66L680.246,1165.66C680.246,1165.67 680.233,1165.69 680.233,1165.69C679.167,1167.73 678.167,1169.79 677.171,1171.86C669.367,1171.95 661.55,1172.36 653.692,1172.69L653.054,1172.69C653.154,1172.52 653.25,1172.34 653.346,1172.17C660.788,1158.91 668.229,1145.65 675.671,1132.39C683.154,1119.04 690.654,1105.7 698.137,1092.34ZM1051.53,1174.64C1054.79,1124.77 1058,1074.88 1056.85,1024.86C1058.16,1023.72 1058.91,1021.15 1060.02,1019.98C1078.24,994.133 1108.56,984.517 1139,984.517C1140.37,984.517 1141.73,984.529 1143.08,984.571C1189.95,985.054 1236.5,991.308 1282.68,999.288C1299.44,1001.08 1316.11,1003.55 1332.87,1005.58C1333.85,1005.64 1334.85,1005.58 1335.85,1005.52C1336.25,1005.5 1336.65,1005.47 1337.05,1005.47C1341.12,1014.41 1346.05,1022.89 1350.45,1031.73C1358.43,1048.49 1365.65,1065.59 1373.72,1082.3C1386.03,1108 1396.38,1134.63 1409.96,1159.7C1407.01,1160.8 1403.8,1161.05 1400.63,1161.7C1371.02,1162.71 1341.64,1158.35 1312.56,1153.19C1287.5,1147.35 1262.8,1140.26 1237.3,1136.37C1186.74,1129.24 1133.16,1135.81 1089.09,1162.77C1074.34,1171.38 1061.7,1183.03 1052.08,1197.14C1051.22,1198.34 1050.38,1199.56 1049.6,1200.8C1050.17,1192.09 1051.38,1183.38 1051.53,1174.64ZM906.046,1138.24C900.279,1138.24 894.542,1138.5 888.862,1138.98C863.512,1140.94 838.954,1147.76 814.067,1152.57C843.196,1143.24 872.187,1133.47 902.887,1131.14C920.988,1130.1 938.975,1132.53 956.188,1138.51C972.733,1143.49 988.033,1151.78 1000.37,1164.05C1007.71,1171.61 1014.1,1180.19 1018.41,1189.82C1010.32,1177.87 999.4,1167.67 987.783,1159.45C963.504,1144.46 934.538,1138.24 906.046,1138.24Z" style="fill:rgb(24,39,57);"/>
                    </g>
                    <path d="M256.389,290.985C256.376,291.021 256.366,291.061 256.366,291.101C256.193,291.001 255.977,290.965 255.797,290.998C255.964,290.852 256.13,290.705 256.295,290.566C256.35,290.662 256.439,290.739 256.549,290.772C256.476,290.828 256.419,290.898 256.389,290.985ZM232.242,271.544C232.136,271.514 232.029,271.48 231.923,271.451C231.929,271.427 231.936,271.404 231.939,271.381C232.019,271.414 232.102,271.447 232.186,271.48C232.325,271.54 232.468,271.6 232.608,271.663C232.488,271.62 232.365,271.58 232.242,271.544ZM171.478,277.098C171.185,277.075 170.892,277.068 170.596,277.058C170.829,277.055 171.062,277.052 171.295,277.048C171.631,277.048 171.963,277.042 172.296,277.012C172.03,277.085 171.751,277.072 171.478,277.098ZM165.637,278.821C165.524,278.861 165.404,278.888 165.281,278.908C165.388,278.715 165.487,278.515 165.601,278.326C165.584,278.432 165.617,278.565 165.724,278.721C165.69,278.751 165.66,278.785 165.637,278.821ZM271.916,281.02C271.556,281.196 271.201,281.382 270.851,281.578C270.785,281.535 270.715,281.505 270.642,281.492C271.061,281.326 271.487,281.169 271.916,281.02ZM277.407,279.456C276.426,279.706 275.458,279.999 274.503,280.328C274.477,280.285 274.443,280.248 274.404,280.221C275.371,279.942 276.369,279.689 277.407,279.456ZM303.79,281.086C305.519,281.432 307.205,282.044 308.892,282.636C306.899,282.131 304.96,281.372 302.945,280.94C300.62,280.574 298.351,280.009 296.073,279.463C298.654,279.919 301.288,280.235 303.79,281.086ZM313.937,284.076C314.29,284.136 314.646,284.183 315.002,284.216C315.025,284.219 315.052,284.223 315.078,284.226C314.985,284.263 314.905,284.329 314.835,284.429C314.603,284.416 314.27,284.289 313.934,284.193C313.941,284.156 313.941,284.116 313.937,284.076ZM330.342,286.651C328.941,286.824 327.578,286.834 326.138,286.84C326.068,286.458 325.609,286.448 325.299,286.425C323.972,286.365 322.662,286.168 321.348,285.986C320.816,285.63 319.898,285.35 318.996,285.117C322.735,285.799 326.537,286.348 330.342,286.651ZM356.215,295.092C356.122,294.923 356.026,294.756 355.916,294.59C352.849,288.966 351.057,282.739 347.963,277.112C346.706,272.931 344.384,269.129 342.512,265.194C342.392,264.885 342.272,264.409 341.847,264.506C340.762,261.888 339.648,259.27 338.7,256.593C338.278,255.665 338.141,254.517 337.426,253.759C336.083,252.838 334.669,252.119 333.282,251.248C330.92,249.711 328.855,247.805 326.813,245.846C326.044,245.161 325.309,244.306 324.544,243.558C324.405,243.485 324.262,243.508 324.152,243.581C323.912,243.189 323.676,242.796 323.437,242.404C323.314,242.208 323.071,242.118 322.858,242.234C322.662,242.337 322.565,242.61 322.685,242.81C324.504,245.806 326.324,248.803 328.143,251.797C330.036,254.92 331.932,258.043 333.827,261.163C335.703,264.253 337.576,267.343 339.452,270.429C341.378,273.603 343.303,276.769 345.226,279.942C346.856,282.63 348.486,285.314 350.115,288.001C350.085,288.004 350.052,288.014 350.019,288.028C346.154,289.581 341.99,289.877 337.895,290.369C331.216,291.111 324.355,291.091 317.693,290.16C308.809,289.165 300.134,286.967 291.307,285.583C287.066,285.097 282.785,284.781 278.515,284.905C274.979,285.018 271.503,285.872 268.044,286.564C264.648,287.289 261.278,288.497 258.345,290.359C258.319,290.343 258.289,290.333 258.262,290.319C258.066,290.263 257.913,290.303 257.81,290.396C257.51,290.289 257.217,290.166 256.937,290.013C260.463,287.027 263.753,284.738 267.289,282.979C266.537,283.414 265.822,283.907 265.21,284.505C265.097,284.619 265.067,284.752 265.094,284.875C264.638,285.064 264.186,285.254 263.727,285.41C263.238,285.733 262.01,285.799 262.001,286.498C261.282,286.85 260.624,287.309 259.945,287.732C259.642,287.921 259.104,288.154 259.346,288.597C259.558,288.952 259.997,288.779 260.258,288.586C262.127,287.373 264.159,286.454 266.255,285.706C270.435,283.993 275.069,283.764 279.529,283.331C281.092,283.225 282.682,283.132 284.255,283.138C284.508,283.138 284.814,283.168 285.004,282.975C287.252,283.079 289.561,283.271 291.819,283.498C292.068,283.524 292.371,283.617 292.581,283.431C294.669,283.697 296.781,283.824 298.83,284.316C298.933,284.781 299.542,284.725 299.908,284.845C301.721,285.107 303.573,285.633 305.366,285.793C305.828,285.823 306.321,286.025 306.776,285.912C310.478,286.461 314.22,286.528 317.932,286.913C317.942,287.356 318.468,287.376 318.807,287.346C320.643,287.399 322.475,287.506 324.308,287.642C327.867,287.861 331.369,287.343 334.928,287.223C335.969,287.462 347.494,286.764 346.314,285.204C346.653,284.772 346.184,284.372 345.775,284.509C345.911,284.336 345.908,284.056 345.741,283.877C344.82,282.267 343.999,280.531 343.024,278.938C341.151,275.731 339.685,272.235 337.659,269.109C337.31,268.716 337.137,267.865 336.538,267.842C335.82,266.907 333.249,261.186 332.001,260.714C331.951,260.615 331.898,260.514 331.848,260.416C330.305,257.418 328.775,254.414 327.222,251.421C327.115,251.215 326.863,251.125 326.65,251.231C326.447,251.334 326.354,251.594 326.46,251.8C327.468,253.742 328.462,255.695 329.464,257.641C330.99,260.608 332.517,263.571 334.044,266.538C335.564,269.495 337.087,272.452 338.607,275.409C339.492,277.128 340.376,278.848 341.261,280.567C341.135,280.464 340.995,280.381 340.829,280.361C340.746,280.351 340.666,280.371 340.596,280.411C340.593,280.414 340.589,280.414 340.586,280.414C340.556,280.421 340.529,280.428 340.5,280.441C339.585,280.607 338.707,280.823 337.785,280.937C332.926,281.505 328.007,281.309 323.127,280.75C320.696,280.235 318.168,280.058 315.75,279.37C313.259,278.901 310.904,277.933 308.409,277.451C303.46,275.894 298.252,275.156 293.083,274.58C280.354,273.34 266.255,275.292 256.599,284.362C254.803,285.892 253.22,287.635 251.646,289.378C251.603,289.189 251.557,289.002 251.5,288.816C251.703,288.869 251.949,288.766 252.056,288.557C252.485,288.48 252.458,288.021 252.678,287.682C253.266,286.817 253.925,285.976 254.78,285.334C255.392,284.658 255.022,283.222 255.192,282.324C255.245,279.237 255.618,276.16 255.595,273.07C255.475,262.75 256.639,252.469 256.695,242.144C256.734,241.599 255.864,241.552 255.844,242.104C255.841,242.367 255.837,242.627 255.827,242.889C255.601,242.726 255.275,242.849 255.179,243.096C254.603,243.94 254.038,244.785 253.399,245.58C253.29,245.47 253.196,245.344 253.083,245.238C253.04,245.198 252.99,245.171 252.934,245.154C252.611,244.799 252.209,243.541 251.69,243.894C251.733,243.538 251.913,243.026 251.42,242.913C251.191,242.873 250.968,243.026 250.925,243.255C250.615,252.658 250.502,262.104 249.707,271.5C249.624,275.475 249.095,279.48 249.438,283.444C249.973,284.632 250.496,285.839 250.885,287.093C250.329,285.806 249.594,284.589 248.796,283.441C241.326,271.434 225.766,266.887 212.276,268.068C201.033,268.62 190.496,272.907 179.53,274.996C176.949,275.352 174.391,275.911 171.8,276.19C170.324,276.237 168.853,276.223 167.377,276.19C167.383,276.177 167.393,276.164 167.403,276.154C170.137,270.938 172.336,265.47 175.146,260.283C176.753,257.271 178.303,254.218 179.098,250.879C179.168,250.606 179.267,250.277 179.154,250.007C179.171,249.981 179.184,249.951 179.198,249.924C179.294,249.718 179.427,249.478 179.311,249.259C179.314,249.252 179.317,249.249 179.321,249.242C179.607,249.159 179.76,248.876 179.893,248.627C180.891,246.754 181.805,244.835 182.9,243.012C182.993,242.823 182.903,242.583 182.73,242.477C182.317,242.238 182.071,242.706 181.888,243.003C181.616,242.62 181.343,242.696 181.083,243.003C181.054,242.946 181.004,242.896 180.941,242.856C180.751,242.743 180.462,242.793 180.355,242.999C179.77,244.12 179.181,245.238 178.596,246.359C177.089,249.226 175.582,252.096 174.079,254.966C172.525,257.927 170.972,260.887 169.419,263.844C167.902,266.734 166.389,269.621 164.872,272.508C163.462,275.202 162.048,277.893 160.635,280.587C160.601,280.654 160.582,280.727 160.578,280.797C160.349,281.129 160.093,281.548 160.545,281.788C160.658,281.838 160.774,281.831 160.878,281.785C160.898,281.795 160.924,281.801 160.947,281.808C161.027,281.818 161.107,281.808 161.18,281.775C161.353,281.825 161.539,281.751 161.652,281.602C161.702,281.608 161.756,281.612 161.806,281.605C162.431,281.904 162.64,280.953 162.91,280.564C165.142,276.699 167.127,272.721 169.196,268.783C170.959,265.816 172.17,262.42 174.009,259.447C174.212,259.494 174.401,259.38 174.495,259.201C175.256,257.694 175.988,256.177 176.696,254.644C176.986,254.075 177.292,253.513 177.601,252.954C176.76,255.382 175.562,257.692 174.355,259.96C172.685,263.145 171.152,266.412 169.562,269.641C169.429,269.305 168.917,269.309 168.784,269.641C168.072,271.294 167.32,272.931 166.509,274.54C165.68,276.134 164.939,277.777 164.017,279.317C163.954,279.42 163.941,279.543 163.971,279.653C163.891,279.932 163.971,280.245 164.307,280.311C164.29,280.321 164.273,280.331 164.257,280.341C164.167,280.401 164.104,280.487 164.071,280.584C163.765,280.604 163.395,280.744 163.449,281.113C163.665,281.775 164.626,281.425 165.158,281.509C165.228,281.598 165.328,281.662 165.438,281.675C165.624,281.878 165.907,281.775 166.143,281.755C168.145,281.682 170.167,281.741 172.153,281.439C174.541,281.013 177.102,280.793 179.367,280.029C179.421,280.009 179.474,279.992 179.527,279.975C179.6,279.992 179.68,279.995 179.756,279.975C180.162,279.885 180.565,279.786 180.964,279.683C182.54,279.55 184.087,278.948 185.637,278.605C185.564,278.881 185.83,279.17 186.113,279.121C187.443,278.795 188.74,278.322 190.041,277.897C191.943,277.281 193.753,276.546 195.675,275.941C195.875,275.864 196.137,275.804 196.231,275.588C202.151,273.549 208.291,272.388 214.334,270.792C214.388,270.975 214.557,271.095 214.747,271.098C215.705,271.138 216.659,270.978 217.614,270.915C220.494,270.725 223.411,270.992 226.242,271.517C229.026,271.85 231.477,273.207 233.905,274.557C236.583,276.21 239.573,277.737 241.778,279.975C241.655,280.112 241.612,280.321 241.721,280.484C242.041,280.956 242.353,281.429 242.669,281.898C242.629,281.868 242.586,281.845 242.543,281.821C241.878,281.173 241.222,280.521 240.537,279.895C241.023,279.174 239.643,278.701 239.214,278.316C239.24,278.212 239.227,278.099 239.174,278.006C238.708,277.517 238.023,277.258 237.457,276.892C237.294,276.486 236.786,276.337 236.423,276.15C234.574,275.435 232.954,274.411 231.121,273.609C230.815,273.296 230.276,273.32 229.897,273.08C229.538,272.568 228.733,272.728 228.214,272.442C227.702,272.345 227.007,271.843 226.501,272.043C226.232,271.999 225.959,271.963 225.686,271.93C225.503,271.766 225.194,271.757 224.965,271.693C223.228,271.454 221.462,271.414 219.713,271.354C217.674,271.298 215.648,271.47 213.609,271.514C213.084,271.614 212.286,271.311 211.936,271.793C210.613,271.993 209.312,272.329 208.021,272.681L208.018,272.681C207.839,272.671 207.602,272.655 207.366,272.635C207.153,272.611 207,272.738 206.937,272.901C203.259,273.28 199.64,274.617 196.181,275.904C196.001,276.011 195.918,276.237 195.998,276.433C196.39,277.068 197.262,276.357 197.804,276.253C198.379,276.656 199.201,276.06 199.836,275.974C200.594,275.754 201.349,275.525 202.108,275.299L202.111,275.302C202.816,275.605 203.664,275.089 204.389,274.976C205.364,274.747 206.362,274.637 207.343,274.441C207.952,274.311 208.564,274.185 209.172,274.068C209.881,274.251 210.825,273.952 211.521,273.985C214.501,273.756 217.444,273.463 220.431,273.386C222.53,273.732 224.662,273.775 226.721,274.371C227.166,274.378 228.224,274.9 228.73,274.723C229.458,274.97 230.18,275.222 230.905,275.462C234.54,276.633 237.946,278.548 240.677,281.249C241.432,282.556 242.716,283.594 243.587,284.858C243.993,285.22 244.273,286.129 244.911,285.999C244.978,286.042 245.044,286.062 245.111,286.065C245.23,286.295 245.347,286.524 245.463,286.757C245.526,286.92 245.686,287.027 245.852,287.033C245.393,287.319 245.35,288.054 245.856,289.092C245.793,289.115 245.733,289.142 245.67,289.172C245.596,289.046 245.526,288.916 245.46,288.789C242.676,284.625 238.548,281.336 233.965,279.34C223.684,275.029 212.029,275.562 201.373,278.116C193.131,279.822 184.962,281.868 176.676,283.355C171.082,284.273 165.408,284.848 159.727,284.595C158.03,284.562 156.324,284.446 154.611,284.209C154.382,284.189 154.169,284.359 154.146,284.592C154.139,284.672 154.152,284.748 154.189,284.818C153.999,284.791 153.8,284.905 153.667,285.054C153.098,285.633 152.552,286.242 152.004,286.84C151.907,286.947 151.811,287.057 151.717,287.163C152.363,285.982 153.008,284.798 153.653,283.614C155.17,280.83 156.687,278.049 158.203,275.266C159.79,272.355 161.376,269.445 162.963,266.535C164.596,263.541 166.229,260.544 167.862,257.551C169.562,254.431 171.265,251.311 172.965,248.195C173.074,247.988 172.988,247.726 172.785,247.619C172.575,247.509 172.319,247.592 172.21,247.799C171.864,248.431 171.521,249.063 171.175,249.695C171.075,249.705 170.982,249.745 170.899,249.814C169.655,250.789 168.548,251.89 167.487,253.057C167.267,253.027 167.081,253.184 166.971,253.357C166.342,254.354 165.438,255.006 164.55,255.791C164.23,256.054 164.167,256.473 164.067,256.849C163.665,258.33 162.933,259.689 162.418,261.136C160.305,264.559 158.483,268.237 156.77,271.896C156.594,271.87 156.404,271.956 156.327,272.126C154.771,275.591 152.915,278.914 151.169,282.287C149.715,285.058 148.315,287.851 146.835,290.609C146.16,292.135 144.839,293.785 144.673,295.408C144.543,295.771 144.164,296.273 144.427,296.622C144.094,297.025 143.895,297.454 144.533,297.62C144.839,297.494 145.148,297.384 145.461,297.288L145.464,297.288C145.694,297.384 145.98,297.421 146.126,297.158C146.303,297.128 146.479,297.098 146.655,297.071C146.705,297.091 146.758,297.105 146.811,297.121C146.931,297.301 147.154,297.387 147.364,297.401C153.69,297.218 159.99,296.646 166.312,296.399C175.037,296.386 183.714,295.734 192.412,295.149C192.535,295.292 192.718,295.362 192.904,295.368C194.025,295.362 195.146,295.292 196.264,295.189C201.905,294.843 207.499,293.935 213.147,293.835C213.207,293.985 213.35,294.095 213.51,294.124C214.62,294.168 215.735,294.011 216.856,293.968C219.018,293.662 221.316,294.158 223.415,293.742C227.343,293.908 231.5,294.367 234.813,296.666C234.963,296.759 235.176,296.918 235.385,297.012C235.495,297.191 235.734,297.298 235.947,297.171C235.924,297.231 235.911,297.291 235.914,297.357C235.931,297.547 236.06,297.7 236.233,297.747C236.213,297.843 236.23,297.943 236.273,298.029C236.862,298.804 237.73,297.351 238.232,297.008C239.363,295.788 240.74,294.84 242.107,293.905C243.414,293.004 244.775,292.199 246.155,291.42C246.305,291.364 246.511,291.247 246.661,291.101C246.734,291.128 246.81,291.134 246.887,291.124C248.686,290.915 250.499,291.158 252.308,291.055C252.368,291.061 252.428,291.061 252.485,291.051C253.276,291.497 254.211,291.377 255.059,291.607C255.189,291.63 255.335,291.607 255.465,291.547C255.475,291.57 255.488,291.6 255.501,291.627C256.479,292.298 257.673,292.564 258.771,293.147C260.959,294.085 262.746,295.718 264.459,297.321C264.858,297.454 265.13,297.022 264.987,296.669C265.14,296.642 265.27,296.539 265.327,296.389C265.333,296.37 265.337,296.353 265.34,296.336C265.526,296.31 265.693,296.16 265.722,295.974C265.822,295.841 265.749,295.631 265.553,295.368C267.539,293.932 269.8,293.147 272.212,292.681C272.468,293.037 272.98,292.864 273.346,292.831C277.923,292.458 282.522,292.249 287.116,292.345C287.216,292.604 287.502,292.671 287.754,292.651C290.918,292.767 294.081,292.624 297.24,292.591C297.23,292.648 297.23,292.711 297.244,292.767C297.244,292.771 297.244,292.777 297.247,292.781C297.377,293.243 297.979,293.103 298.348,293.163C301.351,293.353 304.365,293.23 307.375,293.117C310.365,293.795 313.648,293.546 316.738,293.752C316.685,294.47 317.609,294.274 318.085,294.311C324.378,294.367 330.664,294.544 336.944,295.036C340.134,295.215 343.337,295.448 346.533,295.375C346.812,295.342 347.235,295.388 347.464,295.202C347.594,295.212 347.72,295.222 347.827,295.242C347.814,295.432 347.95,295.641 348.146,295.681C349.507,295.827 350.884,295.751 352.251,295.851C353.372,295.901 354.492,295.768 355.607,295.691C355.613,295.691 355.617,295.691 355.623,295.688C355.966,295.947 356.511,295.495 356.215,295.092Z" style="fill:rgb(38,70,102);fill-rule:nonzero;"/>
                </g>
                <g>
                    <g>
                        <path d="M263.597,297.324C263.684,297.404 263.753,297.497 263.817,297.597C263.664,297.846 263.55,298.119 263.354,298.335C259.888,295.591 255.724,293.389 251.277,292.907C246.348,292.455 241.778,295.561 238.645,299.097C238.395,299.057 238.149,299.011 237.906,298.954C237.8,298.877 237.677,298.801 237.594,298.708C237.56,298.638 237.557,298.555 237.53,298.478C237.58,298.442 237.627,298.405 237.677,298.369C237.953,298.156 238.232,297.943 238.512,297.733C240.923,295.445 243.601,293.153 246.77,291.996C247.924,291.736 249.122,291.6 250.326,291.6C251.923,291.6 253.532,291.836 255.046,292.325C255.046,292.332 255.049,292.335 255.052,292.342C255.066,292.342 255.076,292.345 255.086,292.348C255.165,292.368 255.232,292.398 255.305,292.438L255.308,292.441C255.325,292.448 255.342,292.451 255.358,292.458C255.415,292.471 255.468,292.488 255.525,292.501C255.541,292.505 255.555,292.508 255.571,292.515C255.574,292.515 255.574,292.511 255.578,292.511C256.329,292.784 257.055,293.123 257.739,293.529C259.582,294.487 261.515,295.398 263.008,296.852C263.218,296.988 263.414,297.151 263.597,297.324Z" style="fill:rgb(68,127,179);fill-rule:nonzero;"/>
                        <g transform="matrix(0.24,0,0,0.24,0,0)">
                            <path d="M999.246,1243.33C1000.05,1243.83 1000.42,1244.83 999.954,1245.71C999.521,1246.54 998.375,1246.95 997.554,1246.45C995.754,1245.33 994.392,1243.58 992.871,1242.24C991.183,1240.68 993.625,1238.07 995.296,1239.65C996.617,1240.85 997.804,1242.29 999.246,1243.33ZM1002.11,1235.81C1003.41,1236.67 1006.05,1237.42 1005.03,1239.47C1004.58,1240.32 1003.47,1240.65 1002.63,1240.19C1000.76,1239.01 996.888,1237.57 997.796,1234.8C998.4,1233.63 1000.14,1233.58 1000.85,1234.66C1001.15,1235.1 1001.67,1235.55 1002.11,1235.81ZM1008.59,1230.75C1009.76,1231.53 1011.5,1232.65 1010.41,1234.23C1009.83,1235.04 1008.73,1235.17 1007.93,1234.63C1006.16,1233.31 1001.66,1230.49 1004.27,1228.15C1006.35,1226.98 1007.12,1229.86 1008.59,1230.75ZM1013.97,1223.56C1014.74,1225.22 1015.51,1226.53 1016.5,1227.94C1017.95,1229.72 1015.18,1231.99 1013.75,1230.2C1012.71,1228.15 1008.3,1223.64 1011.95,1222.27C1012.84,1222.12 1013.74,1222.7 1013.97,1223.56ZM1019.77,1218.28C1021.96,1219.19 1021.75,1222.2 1023.2,1223.8C1024.44,1225.73 1021.42,1227.62 1020.2,1225.69C1019.23,1224.37 1018.72,1222.6 1018.02,1221.23C1016.99,1219.92 1018.08,1217.9 1019.77,1218.28ZM1028.69,1215.1C1030.35,1217.67 1029.86,1221.34 1031.12,1224.2C1031.83,1226.38 1028.42,1227.45 1027.75,1225.25C1027.37,1222.88 1023.32,1213.08 1028.69,1215.1ZM1035.42,1213.38C1036.35,1213.34 1037.3,1214.1 1037.28,1215.07C1037.23,1217.35 1037.47,1219.6 1037.82,1221.85C1038.22,1224.1 1034.71,1224.73 1034.33,1222.47C1034.38,1220 1032.09,1214.12 1035.42,1213.38ZM1046.5,1212.54C1047.3,1212.95 1047.65,1213.97 1047.31,1214.79C1046.88,1217.7 1047.02,1220.28 1046.96,1223.08C1047.06,1225.36 1043.47,1225.54 1043.41,1223.24C1043.92,1220.64 1041.97,1211.19 1046.5,1212.54ZM1053.03,1213.29C1054.01,1213.51 1054.53,1214.45 1054.4,1215.25C1054.23,1216.95 1054.33,1218.48 1054.16,1220.15C1053.71,1222.07 1054.78,1225.93 1051.92,1226C1050.93,1225.91 1050.22,1225.04 1050.3,1224.07C1050.49,1221.49 1050.72,1218.91 1050.78,1216.55C1050.66,1215.05 1051.06,1212.89 1053.03,1213.29ZM1061.08,1214.43C1062.04,1214.64 1062.6,1215.6 1062.42,1216.54C1061.83,1219.59 1061.16,1222.62 1060.58,1225.67C1060.41,1226.62 1059.38,1227.22 1058.47,1227.01C1057.5,1226.8 1056.95,1225.85 1057.13,1224.91C1057.7,1221.85 1058.36,1218.83 1058.96,1215.78C1059.14,1214.82 1060.15,1214.22 1061.08,1214.43ZM1065.14,1222.08C1065.77,1220.2 1066.1,1215.67 1069.08,1217.25C1070.21,1217.97 1069.72,1219.41 1069.3,1220.33C1068.62,1222.76 1067.97,1225.2 1067.39,1227.65C1067.17,1228.6 1066.2,1229.23 1065.27,1229.01C1062.38,1227.92 1064.97,1224.21 1065.14,1222.08ZM1075.95,1220.42C1078.54,1221.72 1075.87,1224.82 1075.38,1226.72C1074.33,1228.36 1074.18,1232.26 1071.49,1231.57C1068.9,1230.28 1071.54,1227.36 1072.06,1225.48C1073.15,1223.8 1073.15,1219.71 1075.95,1220.42ZM1083.25,1224.76C1084.16,1225.25 1084.38,1226.35 1083.95,1227.23C1082.73,1230.05 1081.28,1232.77 1079.96,1235.56C1079.55,1236.43 1078.38,1236.72 1077.55,1236.28C1074.93,1234.31 1079.49,1229.69 1080.09,1227.22C1080.58,1225.83 1081.45,1223.86 1083.25,1224.76ZM1088.11,1229.88C1089.94,1228.08 1092.34,1230.97 1090.53,1232.5C1089.23,1234.65 1088.22,1236.9 1087.23,1239.15C1086.85,1240.06 1085.85,1240.55 1084.95,1240.21C1084.09,1239.89 1083.52,1238.81 1083.91,1237.92C1085.19,1235.2 1086.26,1232.28 1088.11,1229.88ZM1092.58,1235.89C1093.44,1234.19 1095.85,1232.21 1096.98,1234.81C1097.24,1236.81 1094.93,1238.14 1094.17,1239.88C1092.99,1241.29 1092.09,1244.79 1089.71,1243.36C1087.53,1241 1091.65,1238.14 1092.58,1235.89Z" style="fill:rgb(156,190,221);"/>
                        </g>
                    </g>
                    <g>
                        <path d="M344.744,263.96C343.596,261.552 343.124,258.761 341.557,256.586C340.742,256.383 339.864,256.278 339.019,256.267C340.114,258.649 341.208,261.033 342.302,263.415C343.846,266.771 345.382,270.127 346.925,273.479C348.426,276.739 349.922,279.995 351.416,283.255C352.959,286.617 354.502,289.98 356.049,293.34C356.375,294.045 356.698,294.753 357.024,295.458C357.043,295.498 357.053,295.541 357.053,295.581C357.053,295.585 357.057,295.585 357.057,295.588C357.246,296.037 357.506,296.466 357.702,296.908C357.941,297.401 358.214,297.833 358.444,298.309L358.258,298.309C358.181,298.309 358.108,298.322 358.038,298.332C357.975,298.339 357.915,298.342 357.852,298.345C357.729,298.352 357.606,298.352 357.482,298.362C357.389,298.369 357.296,298.382 357.206,298.402C357.196,298.395 357.186,298.388 357.177,298.382C357.15,298.385 357.127,298.388 357.1,298.388L357.08,298.388C353.298,298.259 349.517,298.129 345.735,297.999C341.827,297.863 337.918,297.727 334.007,297.594C330.099,297.457 326.187,297.321 322.276,297.188C318.391,297.055 314.503,296.918 310.618,296.785C306.517,296.646 302.419,296.503 298.318,296.359C294.51,296.227 290.701,296.097 286.893,295.967C282.932,295.831 278.97,295.694 275.009,295.555C273.126,295.488 271.244,295.425 269.361,295.362C269.225,295.382 269.065,295.382 268.909,295.382C268.719,295.382 268.53,295.382 268.377,295.418C266.614,295.485 265.523,297.078 264.505,298.372C264.475,298.405 264.442,298.435 264.409,298.468C264.302,298.575 264.209,298.698 264.113,298.818C264.106,298.828 264.099,298.834 264.089,298.844C264.046,298.877 263.996,298.904 263.946,298.921L263.943,298.921C262.716,300.148 260.683,300.098 259.06,300.321C255.664,300.318 252.278,300.351 248.882,300.387C245.496,300.258 242.164,300.414 238.808,299.988C238.093,299.925 237.145,299.749 236.822,299.054C236.819,299.057 236.819,299.057 236.815,299.06C236.775,299.02 236.736,298.981 236.696,298.944C236.679,298.927 236.659,298.911 236.642,298.894C236.626,298.877 236.609,298.864 236.593,298.847C236.556,298.818 236.523,298.788 236.486,298.758L236.486,298.751C236.343,298.631 236.2,298.515 236.064,298.385C236.01,298.332 235.964,298.272 235.907,298.222C235.864,298.179 235.811,298.142 235.764,298.102C235.721,298.069 235.678,298.036 235.635,298.003C235.532,297.903 235.428,297.806 235.322,297.71C235.282,297.653 235.229,297.61 235.172,297.577C235.139,297.547 235.106,297.517 235.069,297.49C235.029,297.5 234.989,297.507 234.946,297.507L234.939,297.507C231.647,297.48 228.357,297.454 225.064,297.424C221.535,297.394 218.006,297.364 214.477,297.334C210.902,297.304 207.326,297.274 203.751,297.244C200.248,297.214 196.746,297.184 193.244,297.154C189.701,297.125 186.159,297.095 182.617,297.065C179.214,297.035 175.812,297.008 172.409,296.978C171.824,296.975 171.238,296.968 170.653,296.965C170.5,296.965 170.35,296.962 170.197,296.962C168.285,297.038 166.375,297.111 164.466,297.174C160.395,297.244 156.357,297.806 152.293,297.989C150.207,297.963 148.125,297.886 146.046,298.073C145.794,298.056 145.431,298.079 145.032,298.102C144.407,298.139 143.698,298.176 143.213,298.059C143.206,298.066 143.203,298.076 143.199,298.082C143.06,298.049 142.913,298.023 142.77,298.009C142.707,298.003 142.644,297.996 142.581,297.993C142.551,297.986 142.521,297.983 142.491,297.976C142.434,297.963 142.374,297.953 142.318,297.946L142.311,297.946C143.625,295.412 144.939,292.877 146.246,290.343C147.779,287.383 149.313,284.422 150.846,281.465C152.346,278.568 153.843,275.675 155.343,272.778C156.889,269.791 158.436,266.801 159.986,263.81C161.31,261.249 162.634,258.692 163.961,256.13C163.276,256.227 162.517,256.167 161.892,256.373C160.172,258.886 159.025,261.748 157.475,264.373C156.218,266.857 154.551,269.106 153.231,271.537C148.761,279.353 144.387,287.273 139.833,295.036C139.391,295.797 138.846,296.692 138.909,297.58C139.155,298.648 139.867,299.566 140.316,300.547C141.007,300.93 141.802,300.846 142.577,300.8C156.946,299.942 171.345,299.869 185.73,299.453C201.333,299.596 216.922,299.712 232.521,299.659C233.197,299.666 233.875,299.686 234.55,299.682C234.687,299.682 234.81,299.742 234.89,299.839C234.93,299.855 234.966,299.879 234.999,299.909C235.009,299.942 235.023,299.975 235.039,300.008C235.066,300.085 235.099,300.155 235.142,300.211C235.169,300.281 235.206,300.338 235.245,300.407C235.555,300.843 236.124,300.983 236.619,301.123C242.456,301.718 248.357,301.754 254.218,301.944C256.984,301.798 259.808,301.927 262.506,301.196C263.135,301.036 263.58,300.617 263.963,300.121C263.993,300.098 264.019,300.071 264.046,300.042C264.142,299.958 264.232,299.865 264.322,299.779C264.309,299.792 264.299,299.805 264.286,299.819C264.339,299.765 264.395,299.716 264.452,299.666C264.498,299.622 264.548,299.583 264.595,299.539C264.645,299.496 264.688,299.449 264.728,299.403C264.764,299.366 264.794,299.33 264.824,299.293C264.831,299.283 264.841,299.27 264.851,299.26C264.864,299.24 264.881,299.223 264.894,299.203C264.894,299.207 264.891,299.21 264.891,299.213C264.984,299.097 265.09,298.994 265.197,298.891C265.975,298.369 266.78,297.85 267.731,297.757C269.587,297.517 271.453,297.583 273.319,297.647C274.596,297.693 275.877,297.737 277.154,297.687C282.014,297.604 286.886,297.221 291.742,297.557C297.453,298.186 303.204,297.996 308.925,298.349C316.156,298.897 323.423,299.506 330.658,299.616C337.992,299.613 345.342,299.918 352.666,299.945C355.39,299.835 358.114,299.849 360.835,299.829C355.39,287.905 349.563,276.154 344.744,263.96Z" style="fill:url(#_Linear1);fill-rule:nonzero;"/>
                        <g transform="matrix(0.24,0,0,0.24,0,0)">
                            <path d="M1486.7,1235.48C1488.68,1236.11 1490.3,1238.64 1487.73,1239.72C1487.52,1240.62 1486.52,1241.25 1485.62,1241.03C1485.1,1240.9 1484.58,1240.62 1484.28,1240.16C1476.79,1240.64 1469.3,1240 1461.77,1240C1457.5,1241.41 1452.27,1239.7 1447.69,1240.15C1445.88,1239.87 1442.97,1240.79 1442.03,1238.76C1439.17,1238.58 1436.48,1238.72 1433.7,1238.92C1433.08,1238.96 1432.49,1238.66 1432.14,1238.17C1432.01,1238.16 1431.88,1238.16 1431.75,1238.15C1431.42,1238.15 1431.1,1238.14 1430.78,1238.12C1429.53,1239.09 1427.76,1238.4 1426.28,1238.45C1412.08,1237.34 1397.87,1236.47 1383.64,1236.07C1383.86,1240.15 1377.67,1237.35 1375.28,1237.61C1372.95,1239.58 1368.67,1237.89 1365.73,1238.28C1361.97,1238.08 1358.15,1238.23 1354.43,1237.6C1352.55,1236.61 1350.57,1236.56 1348.45,1236.49C1339.26,1235.99 1330.05,1235.25 1320.84,1235.17C1320.18,1235.17 1319.61,1234.72 1319.34,1234.13C1310.75,1233.9 1301.79,1234.38 1293.41,1233.25C1281.58,1233.83 1269.74,1232.53 1257.91,1232.35C1257.73,1232.62 1257.49,1232.86 1257.2,1233C1253.38,1233.64 1249.51,1232.81 1245.64,1232.74C1215.2,1230.65 1184.35,1230.86 1154.12,1228.15C1142.75,1227.12 1131.24,1229.15 1120.03,1227.96C1117.41,1226.62 1119.12,1223.78 1121.73,1224.31C1123.45,1222.98 1126.05,1223.33 1128.11,1222.82C1131.19,1222.53 1134.45,1221.74 1137.49,1222.57C1168.48,1220.14 1199.67,1219.52 1230.67,1221.73C1246.75,1220.54 1262.86,1222.1 1278.67,1224.79C1282.38,1224.87 1286.23,1225.41 1289.59,1225.46C1298.41,1226.78 1307.49,1226.09 1316.38,1227.21C1332.25,1226.05 1349.05,1228.9 1365.1,1230.33C1380.18,1231.31 1395.33,1231.13 1410.37,1232.82C1410.53,1232.16 1411.07,1231.56 1411.75,1231.46C1415.68,1231.16 1419.65,1231.4 1423.58,1231.6C1433.88,1232.34 1445.16,1230.97 1454.91,1234.26L1455.79,1234.31C1459.99,1233.54 1464.62,1234.62 1468.95,1234.47C1470.75,1234.76 1472.96,1234.02 1474.53,1235.05C1475.82,1235.02 1477.1,1235.01 1478.38,1234.98C1479.35,1234.95 1480.34,1234.93 1481.31,1234.85C1482.62,1232.78 1485.14,1234.71 1486.7,1235.48ZM1096.62,1243.24C1098.55,1242.48 1099.95,1245.14 1098.39,1246.41C1094.28,1254.75 1083.75,1253.45 1075.89,1254.31C1062.45,1254.65 1049.01,1255.28 1035.6,1255.25C1032.03,1255.17 1028.41,1255.03 1024.79,1254.84C1023.64,1255.06 1022.14,1254.82 1021.14,1254.92C1007.8,1253.28 990.054,1257.76 980.662,1245.95C979.654,1245.07 978.733,1244.11 977.817,1243.14C976.254,1241.83 974.737,1240.47 973.429,1238.87C972.817,1238.65 972.504,1238.2 972.383,1237.71C972.242,1237.76 972.117,1237.84 971.967,1237.85C966.813,1237.95 961.621,1237.51 956.458,1237.42C949.979,1236.99 943.333,1237.48 936.946,1236.3C936.904,1236.28 936.858,1236.25 936.817,1236.23C936.571,1236.28 936.329,1236.33 936.075,1236.28C932.021,1235.95 927.967,1235.73 923.912,1235.54C923.708,1236.29 923.021,1236.88 922.217,1236.86C922.054,1237.73 921.221,1238.38 920.329,1238.3C910.504,1236.78 900.504,1236.53 890.604,1237.12C889.821,1237.02 889.246,1236.26 889.192,1235.5C887.554,1235.57 885.917,1235.85 884.271,1235.8C883.796,1235.68 883.471,1235.48 883.208,1235.26C882.4,1235.28 881.596,1235.28 880.788,1235.3C863.7,1235.83 846.496,1235.75 829.304,1235.66C829.733,1237.09 827.929,1238.64 826.567,1237.58C826.092,1237.19 825.575,1236.8 825.042,1236.48C823.329,1236.07 821.6,1235.81 819.862,1235.62C815.538,1235.6 811.221,1235.62 806.9,1235.62C801.817,1236.06 796.729,1236.83 791.713,1237.38C789.258,1237.15 784.504,1239.44 783.275,1236.68C781.562,1236.75 777.075,1237.76 776.2,1236.23C775.8,1236.23 775.404,1236.25 775.008,1236.25C772.954,1236.12 768.317,1237.13 768.967,1233.76C770.212,1231.53 774.412,1232.01 776.654,1231.83C777.933,1231.45 779.812,1230.64 780.55,1232.02C781.192,1232.06 781.779,1232.11 782.204,1232.08C787.917,1232.37 793.558,1231.88 799.246,1231.41C799.425,1230.88 799.842,1230.43 800.4,1230.27C803.508,1229.82 806.733,1229.96 809.879,1229.79C817.979,1229.6 826.079,1229.9 834.175,1229.66C835.15,1229.75 836.354,1229.54 837.225,1230.02C838.883,1229.48 841.125,1229.45 842.363,1228.9C859.042,1225.36 877.367,1223.92 893.942,1226.85C898.758,1226.64 903.583,1226.53 908.4,1226.67C909.192,1224.09 913.775,1225.35 915.979,1224.72C916.333,1224.24 916.929,1223.96 917.558,1223.99C923.158,1224.48 928.363,1223.73 933.9,1224.06C938.167,1224.28 942.425,1224.77 946.663,1225.36C947.329,1225.43 947.896,1225.86 948.15,1226.45C949.558,1226.87 952.008,1226.83 954.021,1227.24C954.492,1227.01 955.067,1226.96 955.608,1227.22C961.229,1228.5 966.604,1230.59 972.079,1232.28C972.588,1232.43 972.971,1232.85 973.154,1233.33C974.254,1233.55 974.813,1234.61 974.679,1235.53C975.129,1235.68 975.504,1235.95 975.842,1236.28C976.346,1236.56 976.863,1236.96 977.375,1237.44C977.904,1237.28 978.479,1237.29 978.95,1237.63C980.571,1239.04 982.071,1240.58 983.529,1242.15C984.433,1242.05 985.408,1242.53 985.504,1243.7C985.921,1244.25 986.296,1244.95 986.7,1245.62C987.271,1246.25 987.837,1246.88 988.408,1247.5C988.471,1247.53 988.517,1247.59 988.579,1247.62C993.988,1248.46 999.496,1248 1004.9,1248.89C1013.94,1250.69 1023.13,1250.43 1032.29,1250.46C1045.21,1250.7 1058.42,1250.4 1071.28,1250.02C1079.9,1248.99 1089.85,1249.38 1096.62,1243.24Z" style="fill:rgb(156,190,221);"/>
                        </g>
                        <path d="M162.805,255.799C162.599,255.689 162.339,255.772 162.229,255.975C162.219,255.989 162.213,256.003 162.206,256.016C162.172,256.078 162.138,256.142 162.104,256.205C161.957,256.014 161.687,255.98 161.429,256.291C160.986,257.345 160.495,258.37 159.846,259.317C159.712,259.483 159.632,259.714 159.676,259.91C159.619,259.931 159.56,259.952 159.516,260.004C159.218,260.391 159.048,260.865 158.824,261.3C158.249,261.603 158.111,262.406 157.756,262.927C156.767,264.886 155.663,266.827 154.9,268.873C154.72,269.182 154.538,269.49 154.354,269.797C154.127,269.706 153.882,269.835 153.772,270.042C152.768,271.841 151.933,273.732 151.037,275.586C150.536,274.75 150.045,275.846 149.83,276.305C148.266,279.218 146.866,282.207 145.502,285.219C145.001,285.222 144.926,285.889 144.68,286.226C143.239,289.029 141.416,291.584 139.965,294.375C139.757,295.027 137.843,297.475 138.89,297.738C138.888,297.776 138.885,297.813 138.884,297.851C138.874,298.09 138.887,298.33 138.967,298.553C138.993,298.637 139.041,298.695 139.096,298.742C139.041,298.931 139.119,299.144 139.296,299.238C139.351,299.267 139.41,299.277 139.469,299.281C139.539,299.459 139.614,299.628 139.653,299.761C139.814,300.12 139.879,300.777 140.379,300.775C140.469,301.14 141.001,301.24 141.179,300.892C141.217,300.962 141.256,301.032 141.299,301.098C141.335,301.156 141.382,301.196 141.432,301.227C141.448,301.259 141.464,301.292 141.479,301.324C141.695,301.795 142.48,301.495 142.387,301.015C142.357,300.865 142.257,300.729 142.184,300.596C142.012,300.286 141.837,299.974 141.671,299.656C141.36,298.867 141.031,298.075 141.017,297.23C141.086,296.985 141.169,296.744 141.257,296.506C142.49,294.228 143.723,291.95 144.957,289.672C146.564,286.698 148.173,283.728 149.78,280.758C151.363,277.831 152.95,274.907 154.533,271.98C155.923,269.413 157.314,266.845 158.704,264.274C160.131,261.639 161.558,259.009 162.981,256.374C163.091,256.168 163.008,255.905 162.805,255.799Z" style="fill:url(#_Linear2);fill-rule:nonzero;"/>
                        <path d="M360.916,299.475C360.911,299.442 360.91,299.408 360.896,299.377C360.485,298.482 360.075,297.59 359.665,296.698C358.492,294.044 357.311,291.39 356.029,288.784C354.854,286.229 353.679,283.671 352.501,281.113C351.29,278.476 350.079,275.838 348.865,273.2C347.657,270.575 346.449,267.947 345.244,265.319C345.266,265.26 345.278,265.196 345.267,265.122C344.956,263.955 344.512,262.802 344.1,261.662C343.998,260.28 342.939,258.985 342.467,257.658C342.211,257.301 342.179,256.564 341.642,256.56C341.513,256.461 341.34,256.449 341.187,256.495C341.128,256.366 341.069,256.237 341.009,256.108C340.913,255.898 340.676,255.785 340.454,255.875C340.434,255.883 340.419,255.9 340.4,255.911C340.385,255.885 340.372,255.859 340.357,255.833C340.296,255.642 340.102,255.511 339.898,255.538C338.752,255.774 340.883,258.119 341.045,258.874C344.097,264.475 346.243,270.536 349.061,276.262C351.612,281.556 354.172,286.874 356.668,292.216C356.747,292.388 356.826,292.56 356.904,292.731C357.883,294.859 358.861,296.988 359.839,299.116C359.97,299.407 360.106,299.696 360.237,299.987C360.367,300.177 360.656,300.204 360.832,300.067C361.056,299.895 361.012,299.682 360.916,299.475Z" style="fill:url(#_Linear3);fill-rule:nonzero;"/>
                    </g>
                    <path d="M352.667,299.944C345.343,299.918 337.992,299.612 330.658,299.615C323.424,299.505 316.157,298.897 308.926,298.348C303.205,297.995 297.454,298.185 291.743,297.556C286.887,297.22 282.014,297.603 277.155,297.686C275.878,297.736 274.597,297.692 273.32,297.646C271.454,297.583 269.588,297.516 267.732,297.756C266.781,297.849 265.976,298.368 265.198,298.89C265.091,298.993 264.985,299.096 264.892,299.213C264.892,299.209 264.895,299.206 264.895,299.203C264.882,299.222 264.865,299.239 264.852,299.259C264.842,299.269 264.832,299.282 264.825,299.292C264.795,299.329 264.765,299.366 264.729,299.402C264.689,299.449 264.645,299.495 264.595,299.538C264.549,299.582 264.499,299.622 264.453,299.665C264.396,299.715 264.339,299.765 264.286,299.818C264.299,299.805 264.309,299.791 264.323,299.778C264.233,299.864 264.143,299.958 264.047,300.041C264.02,300.071 263.993,300.097 263.964,300.121C263.581,300.616 263.135,301.035 262.507,301.195C259.808,301.927 256.984,301.797 254.218,301.943C248.358,301.754 242.457,301.717 236.62,301.122C236.124,300.982 235.555,300.842 235.246,300.407C235.206,300.337 235.17,300.28 235.143,300.21C235.1,300.154 235.067,300.084 235.04,300.007C235.023,299.974 235.01,299.941 235,299.908C234.967,299.878 234.93,299.854 234.89,299.838C234.81,299.741 234.687,299.681 234.551,299.681C233.876,299.685 233.197,299.665 232.522,299.658C216.923,299.711 201.333,299.595 185.731,299.452C171.345,299.868 156.947,299.941 142.578,300.799C141.803,300.846 141.008,300.929 140.316,300.546C139.867,299.565 139.155,298.647 138.909,297.579C138.846,296.691 139.392,295.797 139.834,295.035C144.387,287.272 148.761,279.352 153.231,271.536C154.552,269.105 156.218,266.856 157.476,264.372C159.026,261.748 160.173,258.884 161.893,256.373C162.518,256.166 163.276,256.227 163.961,256.13C162.634,258.692 161.311,261.249 159.987,263.81C158.437,266.8 156.89,269.79 155.343,272.777C153.843,275.674 152.347,278.568 150.847,281.464C149.313,284.421 147.78,287.382 146.247,290.342C144.94,292.876 143.626,295.411 142.312,297.945L142.319,297.945C142.375,297.952 142.435,297.962 142.492,297.975C142.521,297.982 142.551,297.985 142.581,297.992C142.645,297.995 142.708,298.002 142.771,298.008C142.914,298.022 143.06,298.048 143.2,298.082C143.203,298.075 143.207,298.065 143.213,298.058C143.699,298.175 144.407,298.138 145.033,298.102C145.432,298.078 145.794,298.055 146.047,298.072C148.126,297.885 150.208,297.962 152.294,297.989C156.358,297.806 160.396,297.243 164.467,297.174C166.376,297.11 168.285,297.037 170.198,296.961C170.351,296.961 170.501,296.964 170.654,296.964C171.239,296.967 171.824,296.974 172.41,296.977C175.812,297.007 179.215,297.034 182.617,297.064C186.16,297.094 189.702,297.124 193.244,297.154C196.747,297.184 200.249,297.213 203.751,297.243C207.327,297.273 210.902,297.303 214.478,297.333C218.007,297.363 221.536,297.393 225.065,297.423C228.358,297.453 231.647,297.48 234.94,297.506L234.947,297.506C234.99,297.506 235.03,297.5 235.07,297.49C235.106,297.516 235.14,297.546 235.173,297.576C235.23,297.609 235.283,297.653 235.323,297.709C235.429,297.806 235.532,297.902 235.635,298.002C235.679,298.035 235.722,298.068 235.765,298.102C235.812,298.142 235.865,298.178 235.908,298.221C235.965,298.271 236.011,298.331 236.064,298.384C236.201,298.514 236.344,298.63 236.487,298.75L236.487,298.757C236.523,298.787 236.557,298.817 236.593,298.847C236.61,298.863 236.626,298.877 236.643,298.893C236.66,298.91 236.68,298.926 236.696,298.943C236.736,298.98 236.776,299.02 236.816,299.059C236.819,299.056 236.819,299.056 236.823,299.053C237.145,299.748 238.093,299.924 238.808,299.987C242.164,300.413 245.497,300.257 248.883,300.387C252.279,300.35 255.665,300.317 259.061,300.32C260.683,300.097 262.716,300.147 263.944,298.92L263.947,298.92C263.997,298.903 264.047,298.877 264.09,298.843C264.1,298.833 264.107,298.827 264.113,298.817C264.21,298.697 264.303,298.574 264.409,298.467C264.443,298.434 264.476,298.404 264.506,298.371C265.523,297.077 266.614,295.484 268.377,295.417C268.53,295.381 268.72,295.381 268.909,295.381C269.066,295.381 269.225,295.381 269.362,295.361C271.244,295.424 273.127,295.487 275.009,295.554C278.971,295.694 282.932,295.83 286.894,295.966C290.702,296.096 294.51,296.226 298.319,296.359C302.42,296.502 306.518,296.645 310.619,296.784C314.503,296.918 318.392,297.054 322.277,297.187C326.188,297.32 330.099,297.456 334.008,297.593C337.919,297.726 341.827,297.862 345.735,297.998C349.517,298.128 353.299,298.258 357.081,298.388L357.101,298.388C357.127,298.388 357.151,298.384 357.177,298.381C357.187,298.388 357.197,298.394 357.207,298.401C357.297,298.381 357.39,298.368 357.483,298.361C357.606,298.351 357.729,298.351 357.852,298.344C357.916,298.341 357.975,298.338 358.039,298.331C358.108,298.321 358.182,298.308 358.258,298.308L358.444,298.308C358.215,297.832 357.942,297.4 357.703,296.908C357.506,296.465 357.247,296.036 357.057,295.587C357.057,295.584 357.054,295.584 357.054,295.58C357.054,295.541 357.044,295.497 357.024,295.457C356.698,294.752 356.376,294.044 356.05,293.339C354.503,289.979 352.96,286.617 351.416,283.254C349.923,279.994 348.426,276.738 346.926,273.479C345.383,270.126 343.846,266.77 342.303,263.414C341.209,261.033 340.114,258.649 339.02,256.266C339.865,256.276 340.743,256.382 341.558,256.585C343.124,258.761 343.597,261.551 344.744,263.959C349.564,276.153 355.391,287.904 360.836,299.828C358.115,299.848 355.391,299.835 352.667,299.944ZM233.932,296.648C233.217,296.641 232.499,296.635 231.784,296.631C228.298,296.602 224.812,296.572 221.326,296.542C217.794,296.512 214.262,296.482 210.726,296.452C207.167,296.422 203.612,296.392 200.053,296.362C196.534,296.332 193.018,296.302 189.502,296.272C188.119,296.259 186.738,296.249 185.355,296.236C189.682,296.013 194.009,295.787 198.327,295.58C204.307,294.968 210.284,294.709 216.294,294.503C218.438,294.426 220.804,294.259 223.184,294.259C227.021,294.259 230.895,294.694 233.932,296.648ZM165.062,255.857C165.076,255.834 165.086,255.807 165.089,255.78C165.106,255.77 165.119,255.76 165.132,255.747C167.201,253.725 169.267,251.703 171.335,249.68C172.992,248.061 174.648,246.441 176.308,244.818C174.818,247.475 173.324,250.133 171.834,252.794C170.038,255.997 168.242,259.197 166.443,262.399C164.623,265.642 162.804,268.885 160.985,272.128C159.381,274.985 157.775,277.846 156.175,280.703C156.075,280.936 155.962,281.165 155.852,281.391C155.842,281.408 155.833,281.425 155.826,281.441C155.813,281.464 155.803,281.491 155.789,281.514L155.786,281.518C155.543,281.817 155.297,282.12 155.054,282.419C154.991,282.519 154.924,282.619 154.861,282.715C154.579,283.154 154.263,283.563 153.956,283.982C153.807,284.185 153.657,284.385 153.504,284.584C153.361,284.777 153.228,284.98 153.092,285.18C152.826,285.566 152.556,285.961 152.294,286.354C152.29,286.364 152.284,286.374 152.277,286.38L152.277,286.374C151.964,286.843 151.658,287.312 151.349,287.781C151.532,287.584 151.711,287.382 151.894,287.182C152.117,286.943 152.35,286.706 152.583,286.477C152.889,286.168 153.185,285.848 153.484,285.526C153.847,285.126 154.216,284.731 154.592,284.345C155.151,283.653 155.713,282.961 156.272,282.269C156.501,282.279 156.727,282.283 156.953,282.283C157.758,282.283 158.56,282.236 159.365,282.193C160.313,282.136 161.267,282.083 162.222,282.106C162.338,282.086 162.495,282.093 162.661,282.1C162.767,282.103 162.877,282.11 162.984,282.106L162.994,282.106C163.007,282.113 163.017,282.116 163.03,282.12C168.748,283.058 174.612,281.807 180.233,280.566C180.921,280.46 181.606,280.337 182.288,280.204C182.874,280.25 183.622,279.931 184.194,279.888C189.546,278.87 194.794,277.5 200.156,276.539C210.726,273.811 222.264,272.554 232.585,276.894C236.46,278.411 239.763,281.095 242.364,284.325C244.223,286.287 245.424,288.722 246.182,291.303C244.553,291.865 243.062,292.843 241.729,293.927C239.992,295.108 238.386,296.621 236.866,298.108C236.301,297.38 235.635,296.735 234.887,296.189C231.306,293.925 227.171,293.391 222.974,293.391C219.889,293.391 216.77,293.68 213.813,293.781C208.621,293.801 203.356,294.29 198.17,294.739C188.821,295.188 179.474,295.717 170.121,296.109L170.091,296.109C170.008,296.106 169.925,296.106 169.842,296.106C169.689,296.106 169.536,296.106 169.383,296.103C169.306,296.099 169.233,296.116 169.17,296.149C167.753,296.206 166.34,296.262 164.923,296.312C158.936,296.512 152.995,297.267 147.002,297.164C146.041,297.18 145.093,297.317 144.135,297.27C144.63,296.655 145.126,296.043 145.625,295.427C145.641,295.404 145.658,295.378 145.675,295.354C145.838,295.135 146.011,294.922 146.17,294.702C146.356,294.443 146.536,294.177 146.716,293.914C146.899,293.648 147.082,293.385 147.248,293.109C147.57,292.57 147.886,292.025 148.196,291.476C148.296,291.286 148.405,291.104 148.508,290.921C148.701,290.558 148.878,290.195 149.061,289.83C147.594,291.642 146.127,293.452 144.66,295.264C145.315,293.994 145.977,292.723 146.636,291.449C148.156,288.509 149.676,285.572 151.199,282.632C152.709,279.715 154.219,276.798 155.729,273.881C157.273,270.901 158.816,267.924 160.359,264.944C161.926,261.914 163.492,258.887 165.062,255.857ZM178.32,242.972C179.734,242.992 181.154,242.975 182.568,243.018C181.939,244.212 181.314,245.406 180.685,246.6C179.168,249.477 177.658,252.358 176.142,255.235C174.685,258.003 173.228,260.776 171.771,263.547C170.188,266.55 168.611,269.554 167.031,272.557C165.944,274.626 164.856,276.692 163.769,278.76C163.729,278.857 163.689,278.95 163.642,279.043C163.529,279.276 163.403,279.499 163.28,279.725C163.276,279.732 163.276,279.735 163.273,279.742C163.27,279.742 163.27,279.745 163.27,279.745C163.27,279.745 163.27,279.748 163.266,279.748L163.266,279.752C163.263,279.752 163.263,279.755 163.263,279.758L163.26,279.758C163.26,279.762 163.256,279.765 163.256,279.765C163,280.254 162.761,280.749 162.521,281.245C160.649,281.268 158.773,281.365 156.887,281.445L156.734,281.445C156.757,281.405 156.78,281.361 156.804,281.322C158.59,278.138 160.376,274.955 162.162,271.772C163.958,268.569 165.758,265.366 167.554,262.16C169.37,258.927 171.186,255.694 172.998,252.458C174.771,249.298 176.547,246.135 178.32,242.972ZM185.884,238.541C185.92,238.478 185.954,238.412 185.987,238.348C185.993,238.335 185.997,238.325 186,238.312C191.089,238.465 196.105,237.297 201.047,236.203C206.376,235.219 211.664,234.084 216.973,232.997C221.489,232.139 226.056,231.224 230.683,231.726C239.517,232.887 247.839,238.039 252.824,245.416C252.815,245.443 252.805,245.473 252.798,245.503C253.154,259.011 252.056,272.567 251.251,286.071C249.086,279.289 243.159,273.921 237.075,270.468C230.877,266.944 224.19,265.66 217.366,265.661C207.473,265.661 197.296,268.359 187.933,270.838C183.968,271.875 179.947,272.704 175.856,273.169C174.212,273.252 172.516,273.582 170.863,273.552C170.926,273.329 170.996,273.126 171.086,272.99C172.633,268.895 174.246,264.827 175.972,260.809C177.775,256.546 179.584,252.265 181.377,248.007C182.837,244.831 184.527,241.764 185.884,238.541ZM253.646,245.965C253.959,245.692 254.138,245.074 254.404,244.794C258.778,238.593 266.057,236.282 273.36,236.282C273.687,236.282 274.014,236.287 274.341,236.296C285.59,236.413 296.762,237.913 307.845,239.829C311.866,240.258 315.867,240.85 319.888,241.339C320.125,241.352 320.364,241.339 320.603,241.325C320.7,241.319 320.796,241.312 320.893,241.312C321.871,243.457 323.051,245.493 324.109,247.615C326.025,251.636 327.758,255.741 329.694,259.753C332.647,265.918 335.132,272.311 338.391,278.328C337.683,278.591 336.911,278.651 336.153,278.807C329.045,279.05 321.994,278.002 315.016,276.765C309.002,275.364 303.072,273.661 296.952,272.727C284.818,271.017 271.959,272.594 261.383,279.063C257.844,281.129 254.81,283.926 252.499,287.312C252.292,287.601 252.093,287.894 251.903,288.19C252.043,286.101 252.332,284.009 252.369,281.914C253.15,269.943 253.922,257.969 253.646,245.965ZM244.419,285.556C242.477,282.688 239.856,280.24 237.069,278.268C231.241,274.671 224.291,273.178 217.449,273.178C216.068,273.178 214.69,273.239 213.327,273.355C207.244,273.824 201.35,275.461 195.376,276.615C202.368,274.377 209.326,272.032 216.693,271.473C221.037,271.223 225.354,271.806 229.485,273.242C233.457,274.436 237.129,276.425 240.089,279.372C241.852,281.185 243.385,283.244 244.419,285.556ZM263.817,297.596C263.664,297.845 263.551,298.118 263.355,298.334C259.889,295.59 255.725,293.389 251.278,292.906C246.349,292.454 241.779,295.56 238.645,299.096C238.396,299.056 238.15,299.01 237.907,298.953C237.801,298.877 237.678,298.8 237.594,298.707C237.561,298.637 237.558,298.554 237.531,298.477C237.581,298.441 237.628,298.404 237.678,298.368C237.954,298.155 238.233,297.942 238.512,297.732C240.924,295.444 243.601,293.152 246.771,291.995C247.923,291.735 249.122,291.601 250.326,291.601C251.924,291.601 253.531,291.837 255.046,292.324C255.046,292.331 255.05,292.334 255.053,292.341C255.066,292.341 255.076,292.344 255.086,292.347C255.166,292.367 255.233,292.397 255.306,292.437L255.309,292.441C255.326,292.447 255.342,292.451 255.359,292.457C255.416,292.47 255.469,292.487 255.525,292.5C255.542,292.504 255.555,292.507 255.572,292.514C255.575,292.514 255.575,292.51 255.579,292.51C256.329,292.783 257.055,293.122 257.741,293.528C259.583,294.486 261.515,295.397 263.009,296.851C263.219,296.987 263.415,297.15 263.598,297.323C263.684,297.403 263.754,297.496 263.817,297.596ZM356.479,296.385C356.672,296.768 356.851,297.154 357.041,297.536C354.47,297.446 351.899,297.36 349.328,297.27C345.499,297.137 341.668,297.007 337.836,296.871C333.811,296.731 329.787,296.595 325.762,296.455C321.831,296.319 317.899,296.186 313.968,296.049C310.113,295.913 306.261,295.78 302.406,295.65C298.482,295.514 294.554,295.378 290.626,295.241C286.707,295.105 282.786,294.972 278.864,294.835C275.675,294.726 272.482,294.619 269.292,294.506C269.252,294.506 269.212,294.506 269.172,294.503C269.019,294.499 268.866,294.493 268.713,294.486C271.787,293.259 275.725,293.545 278.894,293.209C280.954,293.172 283.017,293.153 285.084,293.153C291.372,293.153 297.682,293.33 303.94,293.718C319.935,295.215 335.99,295.707 352.035,296.329C352.867,296.375 353.691,296.372 354.52,296.365C355.168,296.362 355.817,296.359 356.479,296.385ZM337.084,254.091C337.397,254.773 337.71,255.461 338.029,256.143C339.549,259.447 341.062,262.749 342.579,266.051C344.092,269.348 345.606,272.644 347.119,275.937C348.632,279.233 350.146,282.529 351.659,285.822C353.149,289.058 354.633,292.298 356.123,295.531C355.062,295.507 353.981,295.484 352.91,295.534C340.054,294.832 327.169,294.819 314.337,293.675C303.358,292.687 292.325,292.174 281.292,292.307C277.823,292.361 274.324,292.527 270.885,293.049C268.208,293.432 265.696,294.662 264.323,297.057C262.886,295.158 260.627,294.07 258.549,292.993C257.857,292.554 257.127,292.191 256.38,291.895C257.726,290.734 259.28,289.79 260.803,288.842C266.805,285.446 273.718,283.783 280.613,283.783L280.634,283.783C287.971,283.407 295.235,284.288 302.476,285.376C302.413,285.349 302.347,285.326 302.283,285.303C301.552,285.023 300.797,284.824 300.052,284.591C299.283,284.352 298.502,284.165 297.713,284.002C297.311,283.919 296.915,283.816 296.513,283.736C296.283,283.686 296.05,283.643 295.818,283.596C293.682,283.34 291.54,283.128 289.388,282.988C279.546,282.509 269.232,282.921 260.514,288.03C260.39,288.12 260.101,288.3 259.713,288.536C259.986,288.306 260.262,288.083 260.538,287.864C270.37,280.872 281.692,278.305 293.642,279.688C303.757,280.793 313.286,284.711 323.258,286.563C325.353,286.909 327.465,287.219 329.581,287.505C324.764,287.355 319.938,286.913 315.149,286.427C312.697,286.098 310.246,285.722 307.798,285.339C308.377,285.529 308.956,285.715 309.541,285.885C309.521,285.882 309.504,285.875 309.484,285.872C310.15,286.061 310.815,286.267 311.497,286.414C311.856,286.49 312.215,286.563 312.571,286.65C312.963,286.743 313.363,286.823 313.762,286.889C313.742,286.886 313.725,286.886 313.705,286.883C314.101,286.946 314.5,287.019 314.893,287.099C315.332,287.185 315.767,287.272 316.21,287.342C316.406,287.372 316.602,287.405 316.798,287.438C318.957,287.678 321.126,287.877 323.294,288.034C323.65,288.024 324.003,288.014 324.355,288.01C324.462,288.007 324.558,288.053 324.631,288.123C327.445,288.3 330.259,288.399 333.073,288.399C333.971,288.399 334.872,288.389 335.77,288.369C338.391,288.306 340.986,288 343.567,287.591C343.617,287.574 343.667,287.561 343.716,287.548C343.813,287.525 343.909,287.491 344.003,287.458C344.179,287.398 344.345,287.322 344.521,287.265C344.701,287.209 344.884,287.155 345.06,287.089C345.127,287.062 345.19,287.032 345.256,287.002C345.376,286.956 345.499,286.913 345.619,286.859C345.955,286.69 346.294,286.513 346.627,286.337C346.73,286.281 346.826,286.217 346.926,286.154C346.9,286.161 346.87,286.168 346.843,286.171C346.876,286.151 346.913,286.131 346.946,286.108C346.949,286.108 346.953,286.104 346.956,286.101C346.993,286.081 347.029,286.061 347.063,286.038C347.156,285.981 347.249,285.925 347.342,285.862C347.375,285.842 347.408,285.818 347.438,285.795C346.554,284.248 345.669,282.705 344.784,281.159C344.708,281.105 344.645,281.029 344.595,280.949C344.495,280.789 344.405,280.626 344.312,280.463C344.102,280.091 343.863,279.728 343.63,279.369C343.404,279.02 343.181,278.667 342.945,278.325C342.719,277.985 342.482,277.653 342.263,277.31C342.273,277.327 342.283,277.344 342.293,277.36C342.017,276.938 341.718,276.532 341.421,276.126C341.205,275.84 341.002,275.547 340.81,275.248C340.806,275.245 340.806,275.245 340.803,275.241C340.799,275.241 340.799,275.238 340.799,275.235C340.796,275.231 340.793,275.225 340.79,275.218C340.793,275.225 340.793,275.228 340.793,275.231C340.756,275.175 340.72,275.118 340.68,275.062C340.66,275.068 340.64,275.072 340.62,275.075C340.703,275.291 340.786,275.511 340.876,275.727C340.916,275.817 340.956,275.907 340.999,275.993C340.999,275.993 341.002,275.993 341.002,275.996L341.002,276.003C341.086,276.189 341.169,276.376 341.245,276.565C341.288,276.668 341.325,276.775 341.368,276.874C341.391,276.931 341.418,276.988 341.445,277.044C341.555,277.234 341.661,277.423 341.771,277.613C343.151,280.028 344.531,282.432 345.912,284.844C345.962,284.9 346.001,284.96 346.028,285.03C346.028,285.033 346.031,285.037 346.031,285.04C346.038,285.063 346.045,285.09 346.048,285.117C346.068,285.253 346.018,285.399 345.915,285.496C345.892,285.516 345.865,285.536 345.839,285.559C345.752,285.639 345.656,285.702 345.549,285.745C345.559,285.752 345.566,285.762 345.576,285.772C345.336,285.875 345.09,285.975 344.824,286.064C344.748,286.081 344.661,286.101 344.575,286.128C344.458,286.151 344.335,286.188 344.212,286.224C343.983,286.291 343.753,286.36 343.55,286.344C337.613,286.906 331.599,287.302 325.689,286.074C313.479,284.325 301.938,278.777 289.461,278.577C280.358,278.025 271.098,280.284 263.332,285.087C260.338,286.78 257.621,288.928 255.362,291.533C253.217,290.857 250.922,290.671 248.664,290.801C248.471,290.811 248.278,290.827 248.088,290.851C248.052,290.864 248.015,290.881 247.978,290.894C247.905,290.924 247.832,290.937 247.759,290.957C247.676,290.987 247.589,291.027 247.503,291.06C247.44,291.09 247.37,291.104 247.303,291.104C247.223,291.104 247.143,291.08 247.07,291.037C247.054,291.04 247.037,291.044 247.02,291.05C247.027,291.037 247.03,291.024 247.037,291.01C247.027,291.004 247.017,290.997 247.007,290.987C246.901,290.884 246.871,290.751 246.891,290.618C246.887,290.611 246.891,290.605 246.891,290.598L246.891,290.591C246.891,290.591 246.891,290.588 246.894,290.588L246.894,290.581C246.894,290.575 246.894,290.568 246.897,290.561L246.897,290.538C246.891,290.535 246.887,290.531 246.881,290.528C244.35,276.123 228.87,269.524 215.489,270.711C204.084,271.922 193.61,277.001 182.448,279.319C182.311,279.316 182.175,279.346 182.062,279.399C181.171,279.579 180.276,279.742 179.375,279.881C174.242,281.042 168.997,282.033 163.765,281.368C164.227,280.886 164.69,280.41 165.152,279.935C165.262,279.788 165.375,279.645 165.485,279.499C165.761,279.12 166.04,278.74 166.313,278.361C166.539,278.049 166.782,277.746 167.018,277.44C167.228,277.161 167.424,276.871 167.623,276.585C167.613,276.598 167.603,276.615 167.59,276.628C167.836,276.269 168.069,275.907 168.305,275.541C168.305,275.544 168.302,275.547 168.302,275.551C168.325,275.511 168.349,275.471 168.375,275.431C167.474,276.342 166.559,277.244 165.681,278.178C165.209,278.641 164.75,279.116 164.291,279.592C165.521,277.25 166.755,274.905 167.989,272.564C169.556,269.587 171.119,266.61 172.686,263.633C174.143,260.863 175.603,258.089 177.06,255.318C177.618,254.254 178.18,253.186 178.743,252.122C176.348,257.56 174.103,263.078 171.858,268.583C171.229,270.106 170.667,271.659 170.091,273.209C170.065,273.296 170.038,273.382 170.008,273.469C170.005,273.479 170.002,273.492 169.998,273.502C169.982,273.558 169.962,273.612 169.945,273.668C169.938,273.695 169.932,273.725 169.922,273.755C169.885,273.914 169.845,274.071 169.805,274.227L169.805,274.23L169.809,274.23C169.862,274.234 169.912,274.24 169.965,274.247C169.978,274.247 169.988,274.247 169.998,274.25C170.002,274.25 170.005,274.25 170.008,274.254C170.038,274.257 170.068,274.257 170.095,274.263C170.125,274.27 170.155,274.273 170.185,274.277C170.324,274.29 170.467,274.303 170.607,274.317C170.707,274.327 170.807,274.337 170.906,274.347L170.906,274.35C170.943,274.357 170.979,274.367 171.013,274.38C171.019,274.383 171.026,274.383 171.036,274.387C172.436,274.317 173.837,274.23 175.237,274.087C181.936,273.475 188.398,271.579 194.884,269.866C205.597,267.392 216.79,265.01 227.709,267.681C235.812,269.567 243.062,274.55 248.015,281.212C249.365,283.513 250.589,285.985 251.035,288.645C251.052,288.712 251.068,288.779 251.088,288.845L251.088,288.855C251.108,288.932 251.128,289.005 251.148,289.078C251.178,289.194 251.205,289.311 251.231,289.424C251.248,289.48 251.258,289.537 251.268,289.59C251.285,289.67 251.298,289.75 251.314,289.83C251.331,289.929 251.348,290.026 251.364,290.126C251.381,290.242 251.398,290.358 251.414,290.475C251.421,290.528 251.428,290.578 251.434,290.628C251.434,290.628 251.434,290.625 251.438,290.625L251.438,290.621C251.454,290.588 251.474,290.555 251.494,290.518C251.514,290.485 251.534,290.448 251.551,290.415C251.617,290.299 251.684,290.182 251.753,290.066C251.82,289.949 251.89,289.83 251.96,289.717C251.976,289.687 251.993,289.66 252.01,289.63C252.02,289.613 252.033,289.593 252.043,289.577C252.063,289.544 252.083,289.51 252.106,289.477C252.898,288.11 253.895,286.839 254.87,285.595C264.615,274.809 280.814,271.802 294.773,273.326C305.726,274.643 316.203,278.77 327.276,279.362C331.041,279.475 335.035,280.287 338.674,279.1C338.687,279.093 338.697,279.09 338.707,279.086C339.037,279.615 339.935,280.181 340.194,280.527C340.36,280.66 340.523,280.799 340.686,280.939C341.056,281.232 341.428,281.524 341.794,281.837C341.797,281.837 341.797,281.837 341.797,281.84C341.801,281.84 341.801,281.844 341.804,281.844C341.807,281.847 341.811,281.85 341.814,281.854C341.817,281.857 341.821,281.86 341.824,281.86C341.831,281.867 341.834,281.87 341.844,281.88C341.844,281.88 341.847,281.884 341.851,281.884C341.857,281.89 341.864,281.897 341.874,281.904C341.874,281.907 341.877,281.907 341.877,281.907C341.877,281.907 341.877,281.91 341.881,281.91C341.887,281.914 341.89,281.92 341.897,281.923L341.9,281.923C341.9,281.927 341.904,281.93 341.907,281.93C342.246,282.21 342.576,282.499 342.915,282.778C342.985,282.838 343.055,282.895 343.124,282.955C343.061,282.845 342.998,282.735 342.935,282.625L342.935,282.622C342.912,282.582 342.885,282.546 342.862,282.509C342.855,282.502 342.852,282.496 342.845,282.489C342.842,282.486 342.842,282.482 342.838,282.479L342.838,282.476C342.589,282.13 342.336,281.794 342.087,281.458C342.073,281.441 342.063,281.428 342.053,281.415C341.817,281.102 341.551,280.809 341.305,280.507C341.152,280.32 340.999,280.131 340.846,279.948C340.414,279.545 339.985,279.14 339.556,278.734C339.562,278.73 339.566,278.73 339.572,278.727C339.562,278.707 339.556,278.684 339.546,278.664C338.149,276.1 336.868,273.475 335.634,270.824C332.734,264.292 329.777,257.787 326.723,251.327C328.107,253.742 329.491,256.156 330.874,258.574C332.148,260.804 333.426,263.031 334.703,265.263C334.869,265.489 335.039,265.715 335.205,265.942C335.491,266.331 335.741,266.737 335.983,267.149C336.023,267.216 336.06,267.279 336.096,267.342C336.093,267.332 336.09,267.325 336.086,267.319C336.396,267.818 336.752,268.293 337.108,268.762C337.197,268.879 337.294,268.992 337.39,269.101C337.543,269.284 337.68,269.477 337.819,269.667C337.996,269.87 338.169,270.073 338.335,270.285C338.448,270.432 338.564,270.578 338.691,270.718C338.837,270.884 338.96,271.07 339.103,271.243C338.681,270.498 338.255,269.757 337.829,269.015C336,265.815 334.167,262.612 332.335,259.413C330.505,256.214 328.673,253.016 326.843,249.817C325.965,248.287 325.09,246.76 324.216,245.227C323.777,244.462 323.338,243.693 322.898,242.928C322.865,242.872 322.835,242.819 322.802,242.762C327.505,246.624 331.899,250.898 337.084,254.091ZM362.04,300.493C361.993,300.41 361.947,300.327 361.9,300.244C361.897,300.237 361.89,300.227 361.887,300.22C361.827,300.114 361.767,300.007 361.714,299.898C361.707,299.884 361.701,299.874 361.694,299.861C361.654,299.788 361.621,299.708 361.591,299.628C361.564,299.558 361.541,299.489 361.521,299.415C361.338,299.046 361.188,298.66 361.035,298.278C357.54,290.462 353.791,282.738 350.246,274.959C348.137,269.91 345.965,264.877 344.003,259.766C343.48,258.382 343.094,256.708 341.874,255.78C340.823,255.534 339.725,255.381 338.631,255.421C338.358,254.826 338.082,254.231 337.809,253.635C337.743,253.485 337.606,253.386 337.457,253.372C331.792,249.7 326.923,244.954 321.665,240.737C321.578,240.653 321.492,240.6 321.412,240.57C321.412,240.57 321.412,240.567 321.408,240.567C321.395,240.54 321.375,240.514 321.359,240.487L321.355,240.487C321.355,240.484 321.352,240.484 321.352,240.484L321.352,240.48C321.335,240.48 321.322,240.484 321.302,240.484L321.299,240.484C321.176,240.49 321.049,240.494 320.923,240.494L320.916,240.494C320.793,240.494 320.67,240.487 320.547,240.484L320.527,240.484C320.457,240.49 320.394,240.494 320.334,240.49C316.579,240.231 312.86,239.386 309.105,239.153C298.033,237.287 286.844,235.671 275.595,235.455C268.866,235.222 261.772,236.326 256.653,241.049C256.187,241.438 254.251,243.351 253.38,244.718C252.409,243.225 251.348,241.808 249.994,240.624C247.4,238.179 244.622,235.86 241.433,234.234C234.029,230.133 225.594,230.126 217.538,232.019C211.342,233.309 205.125,234.52 198.929,235.804C194.794,236.662 190.577,237.61 186.329,237.45C186.336,237.437 186.339,237.424 186.346,237.41C186.27,237.414 186.193,237.417 186.117,237.417C186.003,237.417 185.894,237.414 185.781,237.41C185.677,237.407 185.578,237.39 185.478,237.381C185.461,237.377 185.448,237.377 185.431,237.374C185.428,237.384 185.425,237.39 185.421,237.4C185.411,237.397 185.405,237.397 185.395,237.397C185.342,237.53 185.292,237.663 185.235,237.796C185.179,237.946 185.119,238.092 185.052,238.235L185.079,238.235C185.069,238.255 185.059,238.279 185.052,238.299C184.37,239.592 183.688,240.89 183.01,242.183C182.325,242.15 181.593,242.167 180.908,242.144C180.322,242.107 179.734,242.114 179.148,242.117C178.699,242.124 178.25,242.127 177.801,242.114C177.771,242.167 177.741,242.22 177.711,242.27C177.698,242.296 177.682,242.32 177.668,242.346L177.665,242.346C177.608,242.37 177.555,242.406 177.512,242.449C175.616,244.305 173.72,246.161 171.821,248.014C169.41,250.376 166.998,252.734 164.583,255.092L164.58,255.092C164.543,255.102 164.51,255.115 164.477,255.135C163.602,255.371 162.661,255.315 161.766,255.534C161.543,255.541 161.321,255.687 161.201,255.884C160.203,257.158 159.588,258.684 158.806,260.098C156.308,265.094 153.162,269.727 150.531,274.663C147.161,280.354 143.935,286.114 140.745,291.905C138.424,296.036 136.751,296.598 139.631,301.035C139.648,301.075 139.671,301.115 139.704,301.145C139.724,301.175 139.741,301.201 139.761,301.231C139.844,301.311 139.937,301.348 140.027,301.351C140.463,301.574 140.948,301.697 141.44,301.684C156.265,300.862 171.109,300.689 185.947,300.3C201.234,300.45 216.524,300.566 231.817,300.503C232.682,300.51 233.546,300.533 234.408,300.533C234.967,302.688 240.292,302.133 242.011,302.356C245.78,302.502 249.545,302.698 253.317,302.801C256.111,302.708 258.941,302.785 261.695,302.249C263.072,302.083 264.08,301.507 264.872,300.36C264.958,300.247 265.051,300.104 265.111,299.954C265.8,299.582 266.418,299.016 267.167,298.747C268.939,298.331 270.772,298.411 272.605,298.491C273.43,298.527 274.254,298.561 275.076,298.554C277.162,298.557 279.247,298.484 281.329,298.414C285.427,298.271 289.525,298.128 293.619,298.581C297.737,298.943 301.871,298.916 305.999,299.05C311.952,299.316 317.963,299.981 323.926,300.264C332.531,300.609 341.112,300.437 349.723,300.826C350.063,300.829 350.405,300.832 350.745,300.832C352.248,300.832 353.751,300.786 355.255,300.739C357.536,300.669 359.821,300.596 362.106,300.696L362.13,300.696C362.1,300.626 362.07,300.56 362.04,300.493Z" style="fill:rgb(244,247,251);fill-rule:nonzero;"/>
                </g>
            </g>
        </g>
    </g>
    <defs>
        <linearGradient id="_Linear1" x1="0" y1="0" x2="1" y2="0" gradientUnits="userSpaceOnUse" gradientTransform="matrix(10.8983,35.508,-7.40914,2.27405,241.736,279.964)"><stop offset="0" style="stop-color:rgb(244,247,251);stop-opacity:1"/><stop offset="1" style="stop-color:rgb(244,247,251);stop-opacity:0.6"/></linearGradient>
        <linearGradient id="_Linear2" x1="0" y1="0" x2="1" y2="0" gradientUnits="userSpaceOnUse" gradientTransform="matrix(10.8983,35.508,-7.40914,2.27405,241.736,279.964)"><stop offset="0" style="stop-color:rgb(244,247,251);stop-opacity:1"/><stop offset="1" style="stop-color:rgb(244,247,251);stop-opacity:0.6"/></linearGradient>
        <linearGradient id="_Linear3" x1="0" y1="0" x2="1" y2="0" gradientUnits="userSpaceOnUse" gradientTransform="matrix(10.8983,35.508,-7.40914,2.27405,241.736,279.964)"><stop offset="0" style="stop-color:rgb(244,247,251);stop-opacity:1"/><stop offset="1" style="stop-color:rgb(244,247,251);stop-opacity:0.6"/></linearGradient>
    </defs>
</svg>
