<?xml version="1.0" encoding="UTF-8" standalone="no"?>
<!DOCTYPE svg PUBLIC "-//W3C//DTD SVG 1.1//EN" "http://www.w3.org/Graphics/SVG/1.1/DTD/svg11.dtd">
<svg width="100%" height="100%" viewBox="0 0 797 279" version="1.1" xmlns="http://www.w3.org/2000/svg" xmlns:xlink="http://www.w3.org/1999/xlink" xml:space="preserve" xmlns:serif="http://www.serif.com/" style="fill-rule:evenodd;clip-rule:evenodd;stroke-linejoin:round;stroke-miterlimit:2;">
    <g transform="matrix(1,0,0,1,-2959.2,-1756.47)">
        <g transform="matrix(6.57986,0,0,6.57986,2702.15,948.273)">
            <g id="logo-2" transform="matrix(1,0,0,1,-17.312,-1.17184)">
                <g id="icon" transform="matrix(1,0,0,1,-981,264)">
                    <g id="Rectangle_2" transform="matrix(1,0,0,1,1039,-140)">
                        <path d="M9.239,1.739C5.126,1.743 1.743,5.126 1.739,9.239L1.739,30.761C1.743,34.874 5.126,38.257 9.239,38.261L30.761,38.261C34.874,38.257 38.257,34.874 38.261,30.761L38.261,9.239C38.257,5.126 34.874,1.743 30.761,1.739L9.239,1.739M9.239,0L30.761,0C35.829,-0 40,4.171 40,9.239L40,30.761C40,35.829 35.829,40 30.761,40L9.239,40C4.171,40 0,35.829 0,30.761L0,9.239C-0,4.171 4.171,0 9.239,0Z" style="fill:url(#_Linear1);fill-rule:nonzero;"/>
                    </g>
                    <g transform="matrix(0.151979,0,0,0.151979,791.592,-408.118)">
                        <path d="M1752.13,1863.17L1752.13,1857.08L1727.52,1857.08L1727.52,1841.15L1752.13,1841.15L1752.13,1814.86L1768.07,1814.86L1768.07,1841.15L1792.81,1841.15L1792.81,1857.08L1768.07,1857.08L1768.07,1871.2C1766.87,1870.41 1765.66,1869.64 1764.42,1868.92L1764.42,1853.4L1789.54,1853.4L1789.54,1844.85L1764.41,1844.85L1764.41,1818.53L1755.8,1818.53L1755.8,1844.85L1730.8,1844.85L1730.8,1853.4L1755.8,1853.4L1755.8,1864.6C1754.6,1864.09 1753.37,1863.61 1752.13,1863.17ZM1742.16,1860.35L1748.86,1860.35L1748.86,1862.07C1746.66,1861.4 1744.43,1860.82 1742.16,1860.35ZM1695.09,1999.49L1684.78,2005.97L1684.77,2005.98L1684.77,1993.4C1688.03,1995.69 1691.48,1997.74 1695.09,1999.49ZM1662.42,1968.56C1659.06,1971.1 1656.27,1974.43 1654.35,1978.35L1654.34,1978.36C1652.46,1973.46 1651.51,1968.26 1651.51,1963.01L1651.51,1828.54L1651.51,1828.5C1651.51,1804.98 1670.86,1785.63 1694.38,1785.63L1694.42,1785.63L1824.56,1785.63L1824.6,1785.63C1848.12,1785.63 1867.47,1804.98 1867.47,1828.5L1867.47,1828.54L1867.47,1930.82L1866.81,1930.82C1863.39,1949.4 1847.02,1963.02 1828.12,1963.01L1794.77,1963.01C1798.9,1953.79 1801.21,1943.59 1801.21,1932.86C1801.21,1908.62 1789.44,1887.03 1771.34,1873.51L1771.34,1860.35L1796.08,1860.35L1796.08,1837.86L1771.34,1837.86L1771.34,1811.54L1748.86,1811.54L1748.86,1837.86L1724.25,1837.86L1724.25,1858.88C1684.82,1860.42 1653.13,1893.07 1653.13,1932.86C1653.13,1945.81 1656.52,1957.97 1662.42,1968.56Z" style="fill:url(#_Linear2);"/>
                    </g>
                    <g transform="matrix(0.151979,0,0,0.151979,791.592,-408.118)">
                        <path d="M1681.82,1904.14C1686.31,1897.05 1692.42,1891.09 1699.64,1886.78L1754.69,1886.78C1756.21,1887.69 1757.68,1888.67 1759.1,1889.72L1759.1,1904.14L1681.82,1904.14ZM1676.65,1950.89L1739.1,1950.89L1739.1,1968.26L1686.88,1968.26C1682.45,1963.22 1678.95,1957.35 1676.65,1950.89ZM1675.39,1918.84L1729.1,1918.84L1729.1,1936.2L1673.65,1936.2C1673.59,1935.1 1673.55,1933.98 1673.55,1932.86C1673.55,1928 1674.19,1923.3 1675.39,1918.84Z" style="fill:url(#_Linear3);"/>
                    </g>
                    <g transform="matrix(-0.258676,0,0,0.258676,1069.99,-130.272)">
                        <path d="M61.5,18C37.547,18 18,37.547 18,61.5C18,85.453 37.547,105 61.5,105C71.319,105 80.367,101.679 87.662,96.152L115.758,124.242C116.889,125.42 118.453,126.087 120.086,126.087C123.378,126.087 126.087,123.378 126.087,120.086C126.087,118.453 125.42,116.889 124.242,115.758L96.152,87.662C101.679,80.367 105,71.319 105,61.5C105,37.547 85.453,18 61.5,18ZM61.5,30C78.968,30 93,44.032 93,61.5C93,69.887 89.742,77.462 84.445,83.092C83.93,83.465 83.477,83.918 83.104,84.434C77.472,89.737 69.893,93 61.5,93C44.032,93 30,78.968 30,61.5C30,44.032 44.032,30 61.5,30Z" style="fill:rgb(244,247,251);fill-rule:nonzero;"/>
                    </g>
                </g>
                <g transform="matrix(1,0,0,1,105.261,134)">
                    <g id="text">
                        <g id="Group_2">
                            <g id="bible" transform="matrix(1,0,0,1,-0.261,21)">
                                <g transform="matrix(12,0,0,12,0.210938,0)">
                                    <path d="M0.47,-0.677L0.475,-0.457L0.455,-0.457C0.446,-0.512 0.422,-0.556 0.385,-0.59C0.349,-0.624 0.309,-0.641 0.266,-0.641C0.232,-0.641 0.206,-0.632 0.187,-0.614C0.167,-0.596 0.158,-0.576 0.158,-0.553C0.158,-0.538 0.161,-0.525 0.168,-0.514C0.177,-0.498 0.193,-0.483 0.213,-0.468C0.229,-0.458 0.264,-0.438 0.319,-0.411C0.397,-0.373 0.449,-0.337 0.476,-0.303C0.503,-0.269 0.516,-0.231 0.516,-0.187C0.516,-0.132 0.495,-0.084 0.451,-0.044C0.408,-0.004 0.354,0.016 0.287,0.016C0.266,0.016 0.247,0.014 0.228,0.009C0.209,0.005 0.186,-0.003 0.158,-0.015C0.143,-0.021 0.13,-0.024 0.12,-0.024C0.111,-0.024 0.102,-0.021 0.093,-0.015C0.083,-0.008 0.076,0.002 0.07,0.015L0.052,0.015L0.052,-0.235L0.07,-0.235C0.084,-0.165 0.112,-0.111 0.153,-0.074C0.193,-0.037 0.237,-0.019 0.285,-0.019C0.321,-0.019 0.35,-0.028 0.372,-0.048C0.393,-0.068 0.404,-0.091 0.404,-0.118C0.404,-0.133 0.4,-0.148 0.392,-0.163C0.384,-0.178 0.371,-0.192 0.354,-0.205C0.337,-0.218 0.307,-0.235 0.264,-0.256C0.204,-0.286 0.161,-0.311 0.134,-0.332C0.108,-0.353 0.088,-0.376 0.073,-0.402C0.059,-0.428 0.052,-0.456 0.052,-0.487C0.052,-0.54 0.072,-0.584 0.11,-0.622C0.149,-0.659 0.198,-0.677 0.257,-0.677C0.278,-0.677 0.299,-0.675 0.319,-0.669C0.335,-0.666 0.353,-0.658 0.375,-0.648C0.397,-0.637 0.413,-0.632 0.421,-0.632C0.43,-0.632 0.437,-0.634 0.441,-0.64C0.446,-0.645 0.451,-0.657 0.455,-0.677L0.47,-0.677Z" style="fill:white;fill-rule:nonzero;"/>
                                </g>
                                <g transform="matrix(12,0,0,12,7.30664,0)">
                                    <path d="M0.667,-0.677L0.667,-0.448L0.648,-0.448C0.634,-0.508 0.607,-0.554 0.568,-0.585C0.529,-0.617 0.485,-0.633 0.436,-0.633C0.394,-0.633 0.356,-0.621 0.322,-0.598C0.287,-0.574 0.262,-0.543 0.246,-0.504C0.226,-0.455 0.215,-0.401 0.215,-0.34C0.215,-0.281 0.223,-0.227 0.238,-0.178C0.253,-0.13 0.276,-0.093 0.308,-0.068C0.34,-0.043 0.381,-0.031 0.432,-0.031C0.474,-0.031 0.512,-0.04 0.547,-0.058C0.581,-0.076 0.618,-0.108 0.656,-0.152L0.656,-0.095C0.619,-0.056 0.58,-0.028 0.54,-0.011C0.5,0.006 0.453,0.015 0.399,0.015C0.329,0.015 0.266,0.001 0.211,-0.027C0.156,-0.056 0.114,-0.096 0.084,-0.149C0.054,-0.202 0.04,-0.259 0.04,-0.319C0.04,-0.382 0.056,-0.442 0.089,-0.499C0.122,-0.555 0.167,-0.599 0.223,-0.63C0.279,-0.662 0.339,-0.677 0.402,-0.677C0.448,-0.677 0.498,-0.667 0.549,-0.647C0.579,-0.635 0.598,-0.629 0.606,-0.629C0.617,-0.629 0.626,-0.633 0.634,-0.641C0.641,-0.649 0.646,-0.661 0.648,-0.677L0.667,-0.677Z" style="fill:white;fill-rule:nonzero;"/>
                                </g>
                                <g transform="matrix(12,0,0,12,16.3945,0)">
                                    <path d="M0.266,-0.302L0.266,-0.116C0.266,-0.08 0.268,-0.058 0.272,-0.049C0.277,-0.039 0.284,-0.032 0.295,-0.026C0.306,-0.021 0.327,-0.018 0.357,-0.018L0.357,-0L0.019,-0L0.019,-0.018C0.049,-0.018 0.07,-0.021 0.081,-0.027C0.092,-0.032 0.099,-0.04 0.104,-0.049C0.108,-0.058 0.11,-0.08 0.11,-0.116L0.11,-0.546C0.11,-0.582 0.108,-0.604 0.104,-0.614C0.099,-0.623 0.092,-0.63 0.081,-0.636C0.069,-0.641 0.049,-0.644 0.019,-0.644L0.019,-0.662L0.326,-0.662C0.406,-0.662 0.465,-0.657 0.502,-0.646C0.539,-0.634 0.569,-0.614 0.593,-0.584C0.616,-0.554 0.628,-0.52 0.628,-0.479C0.628,-0.431 0.61,-0.39 0.575,-0.358C0.553,-0.338 0.521,-0.323 0.481,-0.313L0.64,-0.089C0.661,-0.06 0.676,-0.042 0.685,-0.035C0.698,-0.025 0.713,-0.019 0.731,-0.018L0.731,-0L0.522,-0L0.309,-0.302L0.266,-0.302ZM0.266,-0.626L0.266,-0.336L0.293,-0.336C0.339,-0.336 0.373,-0.341 0.395,-0.349C0.417,-0.357 0.435,-0.372 0.448,-0.394C0.461,-0.415 0.467,-0.444 0.467,-0.479C0.467,-0.529 0.455,-0.566 0.432,-0.59C0.408,-0.614 0.37,-0.626 0.318,-0.626L0.266,-0.626Z" style="fill:white;fill-rule:nonzero;"/>
                                </g>
                                <g transform="matrix(12,0,0,12,25.4824,0)">
                                    <path d="M0.366,-0.018L0.366,-0L0.02,-0L0.02,-0.018L0.042,-0.018C0.061,-0.018 0.077,-0.021 0.088,-0.028C0.097,-0.033 0.103,-0.041 0.108,-0.052C0.111,-0.06 0.113,-0.08 0.113,-0.113L0.113,-0.549C0.113,-0.583 0.111,-0.604 0.108,-0.612C0.104,-0.621 0.097,-0.628 0.086,-0.635C0.075,-0.641 0.061,-0.644 0.042,-0.644L0.02,-0.644L0.02,-0.662L0.366,-0.662L0.366,-0.644L0.344,-0.644C0.325,-0.644 0.31,-0.641 0.298,-0.634C0.289,-0.629 0.283,-0.621 0.278,-0.61C0.274,-0.603 0.272,-0.582 0.272,-0.549L0.272,-0.113C0.272,-0.079 0.274,-0.058 0.278,-0.05C0.282,-0.041 0.289,-0.034 0.3,-0.028C0.311,-0.021 0.326,-0.018 0.344,-0.018L0.366,-0.018Z" style="fill:white;fill-rule:nonzero;"/>
                                </g>
                                <g transform="matrix(12,0,0,12,30.5742,0)">
                                    <path d="M0.27,-0.3L0.27,-0.116C0.27,-0.08 0.272,-0.058 0.277,-0.049C0.281,-0.039 0.289,-0.032 0.3,-0.026C0.311,-0.021 0.332,-0.018 0.362,-0.018L0.362,-0L0.025,-0L0.025,-0.018C0.056,-0.018 0.077,-0.021 0.088,-0.027C0.099,-0.032 0.106,-0.04 0.111,-0.049C0.115,-0.058 0.117,-0.08 0.117,-0.116L0.117,-0.546C0.117,-0.582 0.115,-0.604 0.111,-0.614C0.106,-0.623 0.098,-0.63 0.087,-0.636C0.076,-0.641 0.056,-0.644 0.025,-0.644L0.025,-0.662L0.314,-0.662C0.409,-0.662 0.477,-0.645 0.519,-0.611C0.56,-0.577 0.581,-0.535 0.581,-0.484C0.581,-0.441 0.567,-0.405 0.541,-0.374C0.514,-0.343 0.477,-0.323 0.43,-0.312C0.399,-0.304 0.345,-0.3 0.27,-0.3ZM0.27,-0.624L0.27,-0.338C0.281,-0.337 0.289,-0.337 0.294,-0.337C0.334,-0.337 0.365,-0.349 0.386,-0.372C0.408,-0.396 0.418,-0.432 0.418,-0.482C0.418,-0.531 0.408,-0.567 0.386,-0.59C0.365,-0.613 0.333,-0.624 0.29,-0.624L0.27,-0.624Z" style="fill:white;fill-rule:nonzero;"/>
                                </g>
                                <g transform="matrix(12,0,0,12,38.3262,0)">
                                    <path d="M0.631,-0.662L0.631,-0.483L0.613,-0.483C0.603,-0.524 0.591,-0.554 0.579,-0.572C0.566,-0.59 0.549,-0.604 0.526,-0.615C0.514,-0.621 0.492,-0.624 0.461,-0.624L0.412,-0.624L0.412,-0.113C0.412,-0.079 0.414,-0.058 0.418,-0.05C0.421,-0.041 0.429,-0.034 0.44,-0.028C0.451,-0.021 0.465,-0.018 0.484,-0.018L0.506,-0.018L0.506,-0L0.16,-0L0.16,-0.018L0.182,-0.018C0.201,-0.018 0.216,-0.021 0.228,-0.028C0.236,-0.033 0.243,-0.041 0.248,-0.052C0.252,-0.06 0.253,-0.08 0.253,-0.113L0.253,-0.624L0.206,-0.624C0.161,-0.624 0.129,-0.615 0.108,-0.596C0.08,-0.569 0.062,-0.532 0.055,-0.483L0.036,-0.483L0.036,-0.662L0.631,-0.662Z" style="fill:white;fill-rule:nonzero;"/>
                                </g>
                                <g transform="matrix(12,0,0,12,46.752,0)">
                                    <path d="M0.023,-0.662L0.365,-0.662L0.365,-0.644L0.348,-0.644C0.322,-0.644 0.305,-0.641 0.295,-0.636C0.286,-0.631 0.279,-0.623 0.275,-0.614C0.271,-0.604 0.269,-0.581 0.269,-0.543L0.269,-0.219C0.269,-0.16 0.273,-0.12 0.282,-0.101C0.291,-0.082 0.306,-0.066 0.326,-0.053C0.347,-0.041 0.373,-0.034 0.404,-0.034C0.44,-0.034 0.47,-0.042 0.495,-0.058C0.521,-0.074 0.539,-0.097 0.552,-0.125C0.565,-0.153 0.571,-0.203 0.571,-0.273L0.571,-0.543C0.571,-0.573 0.568,-0.594 0.562,-0.606C0.555,-0.619 0.548,-0.628 0.538,-0.633C0.523,-0.64 0.503,-0.644 0.476,-0.644L0.476,-0.662L0.705,-0.662L0.705,-0.644L0.691,-0.644C0.673,-0.644 0.657,-0.64 0.645,-0.633C0.633,-0.625 0.624,-0.614 0.618,-0.599C0.614,-0.589 0.612,-0.57 0.612,-0.543L0.612,-0.292C0.612,-0.214 0.607,-0.158 0.596,-0.123C0.586,-0.089 0.561,-0.057 0.521,-0.028C0.482,0.001 0.428,0.016 0.359,0.016C0.302,0.016 0.257,0.008 0.226,-0.007C0.183,-0.028 0.153,-0.055 0.136,-0.087C0.118,-0.12 0.109,-0.164 0.109,-0.219L0.109,-0.543C0.109,-0.581 0.107,-0.605 0.103,-0.614C0.099,-0.623 0.091,-0.631 0.081,-0.636C0.071,-0.642 0.051,-0.644 0.023,-0.644L0.023,-0.662Z" style="fill:white;fill-rule:nonzero;"/>
                                </g>
                                <g transform="matrix(12,0,0,12,55.8398,0)">
                                    <path d="M0.266,-0.302L0.266,-0.116C0.266,-0.08 0.268,-0.058 0.272,-0.049C0.277,-0.039 0.284,-0.032 0.295,-0.026C0.306,-0.021 0.327,-0.018 0.357,-0.018L0.357,-0L0.019,-0L0.019,-0.018C0.049,-0.018 0.07,-0.021 0.081,-0.027C0.092,-0.032 0.099,-0.04 0.104,-0.049C0.108,-0.058 0.11,-0.08 0.11,-0.116L0.11,-0.546C0.11,-0.582 0.108,-0.604 0.104,-0.614C0.099,-0.623 0.092,-0.63 0.081,-0.636C0.069,-0.641 0.049,-0.644 0.019,-0.644L0.019,-0.662L0.326,-0.662C0.406,-0.662 0.465,-0.657 0.502,-0.646C0.539,-0.634 0.569,-0.614 0.593,-0.584C0.616,-0.554 0.628,-0.52 0.628,-0.479C0.628,-0.431 0.61,-0.39 0.575,-0.358C0.553,-0.338 0.521,-0.323 0.481,-0.313L0.64,-0.089C0.661,-0.06 0.676,-0.042 0.685,-0.035C0.698,-0.025 0.713,-0.019 0.731,-0.018L0.731,-0L0.522,-0L0.309,-0.302L0.266,-0.302ZM0.266,-0.626L0.266,-0.336L0.293,-0.336C0.339,-0.336 0.373,-0.341 0.395,-0.349C0.417,-0.357 0.435,-0.372 0.448,-0.394C0.461,-0.415 0.467,-0.444 0.467,-0.479C0.467,-0.529 0.455,-0.566 0.432,-0.59C0.408,-0.614 0.37,-0.626 0.318,-0.626L0.266,-0.626Z" style="fill:white;fill-rule:nonzero;"/>
                                </g>
                                <g transform="matrix(12,0,0,12,64.9277,0)">
                                    <path d="M0.272,-0.624L0.272,-0.354L0.286,-0.354C0.328,-0.354 0.358,-0.368 0.377,-0.394C0.396,-0.42 0.408,-0.459 0.413,-0.511L0.432,-0.511L0.432,-0.164L0.413,-0.164C0.409,-0.202 0.401,-0.233 0.388,-0.257C0.376,-0.281 0.361,-0.297 0.345,-0.305C0.328,-0.314 0.304,-0.318 0.272,-0.318L0.272,-0.131C0.272,-0.095 0.274,-0.073 0.277,-0.064C0.28,-0.056 0.286,-0.05 0.294,-0.044C0.303,-0.039 0.317,-0.037 0.335,-0.037L0.375,-0.037C0.437,-0.037 0.486,-0.051 0.524,-0.08C0.561,-0.108 0.588,-0.152 0.604,-0.21L0.622,-0.21L0.592,-0L0.02,-0L0.02,-0.018L0.042,-0.018C0.061,-0.018 0.077,-0.021 0.088,-0.028C0.097,-0.033 0.103,-0.041 0.108,-0.052C0.111,-0.06 0.113,-0.08 0.113,-0.113L0.113,-0.549C0.113,-0.579 0.112,-0.597 0.111,-0.604C0.108,-0.615 0.102,-0.624 0.093,-0.63C0.08,-0.639 0.063,-0.644 0.042,-0.644L0.02,-0.644L0.02,-0.662L0.574,-0.662L0.574,-0.466L0.556,-0.466C0.546,-0.514 0.533,-0.549 0.516,-0.569C0.499,-0.59 0.475,-0.605 0.443,-0.615C0.425,-0.621 0.391,-0.624 0.341,-0.624L0.272,-0.624Z" style="fill:white;fill-rule:nonzero;"/>
                                </g>
                            </g>
                            <g id="holy" transform="matrix(1,0,0,1,-0.261,6)">
                                <g transform="matrix(12,0,0,12,0.210938,0)">
                                    <path d="M0.445,-0.351C0.508,-0.336 0.552,-0.319 0.577,-0.298C0.614,-0.268 0.632,-0.23 0.632,-0.183C0.632,-0.133 0.612,-0.092 0.572,-0.059C0.523,-0.02 0.451,-0 0.357,-0L0.021,-0L0.021,-0.018C0.052,-0.018 0.072,-0.021 0.083,-0.027C0.094,-0.032 0.102,-0.04 0.106,-0.049C0.111,-0.058 0.113,-0.08 0.113,-0.116L0.113,-0.546C0.113,-0.582 0.111,-0.604 0.106,-0.614C0.102,-0.623 0.094,-0.63 0.083,-0.636C0.072,-0.641 0.051,-0.644 0.021,-0.644L0.021,-0.662L0.338,-0.662C0.414,-0.662 0.468,-0.655 0.5,-0.642C0.531,-0.628 0.556,-0.608 0.574,-0.581C0.592,-0.554 0.602,-0.526 0.602,-0.496C0.602,-0.464 0.59,-0.435 0.567,-0.41C0.544,-0.385 0.503,-0.366 0.445,-0.351ZM0.267,-0.364C0.313,-0.364 0.347,-0.369 0.369,-0.38C0.391,-0.39 0.408,-0.405 0.42,-0.424C0.432,-0.443 0.438,-0.467 0.438,-0.496C0.438,-0.525 0.432,-0.549 0.42,-0.568C0.409,-0.587 0.392,-0.601 0.371,-0.611C0.349,-0.621 0.315,-0.625 0.267,-0.625L0.267,-0.364ZM0.267,-0.326L0.267,-0.114L0.267,-0.089C0.267,-0.072 0.271,-0.059 0.28,-0.05C0.289,-0.041 0.302,-0.036 0.32,-0.036C0.346,-0.036 0.37,-0.042 0.392,-0.053C0.414,-0.065 0.431,-0.082 0.442,-0.104C0.454,-0.126 0.46,-0.15 0.46,-0.177C0.46,-0.208 0.453,-0.236 0.438,-0.26C0.424,-0.285 0.404,-0.302 0.379,-0.312C0.354,-0.322 0.317,-0.326 0.267,-0.326Z" style="fill:white;fill-rule:nonzero;"/>
                                </g>
                                <g transform="matrix(12,0,0,12,8.63672,0)">
                                    <path d="M0.366,-0.018L0.366,-0L0.02,-0L0.02,-0.018L0.042,-0.018C0.061,-0.018 0.077,-0.021 0.088,-0.028C0.097,-0.033 0.103,-0.041 0.108,-0.052C0.111,-0.06 0.113,-0.08 0.113,-0.113L0.113,-0.549C0.113,-0.583 0.111,-0.604 0.108,-0.612C0.104,-0.621 0.097,-0.628 0.086,-0.635C0.075,-0.641 0.061,-0.644 0.042,-0.644L0.02,-0.644L0.02,-0.662L0.366,-0.662L0.366,-0.644L0.344,-0.644C0.325,-0.644 0.31,-0.641 0.298,-0.634C0.289,-0.629 0.283,-0.621 0.278,-0.61C0.274,-0.603 0.272,-0.582 0.272,-0.549L0.272,-0.113C0.272,-0.079 0.274,-0.058 0.278,-0.05C0.282,-0.041 0.289,-0.034 0.3,-0.028C0.311,-0.021 0.326,-0.018 0.344,-0.018L0.366,-0.018Z" style="fill:white;fill-rule:nonzero;"/>
                                </g>
                                <g transform="matrix(12,0,0,12,13.7285,0)">
                                    <path d="M0.445,-0.351C0.508,-0.336 0.552,-0.319 0.577,-0.298C0.614,-0.268 0.632,-0.23 0.632,-0.183C0.632,-0.133 0.612,-0.092 0.572,-0.059C0.523,-0.02 0.451,-0 0.357,-0L0.021,-0L0.021,-0.018C0.052,-0.018 0.072,-0.021 0.083,-0.027C0.094,-0.032 0.102,-0.04 0.106,-0.049C0.111,-0.058 0.113,-0.08 0.113,-0.116L0.113,-0.546C0.113,-0.582 0.111,-0.604 0.106,-0.614C0.102,-0.623 0.094,-0.63 0.083,-0.636C0.072,-0.641 0.051,-0.644 0.021,-0.644L0.021,-0.662L0.338,-0.662C0.414,-0.662 0.468,-0.655 0.5,-0.642C0.531,-0.628 0.556,-0.608 0.574,-0.581C0.592,-0.554 0.602,-0.526 0.602,-0.496C0.602,-0.464 0.59,-0.435 0.567,-0.41C0.544,-0.385 0.503,-0.366 0.445,-0.351ZM0.267,-0.364C0.313,-0.364 0.347,-0.369 0.369,-0.38C0.391,-0.39 0.408,-0.405 0.42,-0.424C0.432,-0.443 0.438,-0.467 0.438,-0.496C0.438,-0.525 0.432,-0.549 0.42,-0.568C0.409,-0.587 0.392,-0.601 0.371,-0.611C0.349,-0.621 0.315,-0.625 0.267,-0.625L0.267,-0.364ZM0.267,-0.326L0.267,-0.114L0.267,-0.089C0.267,-0.072 0.271,-0.059 0.28,-0.05C0.289,-0.041 0.302,-0.036 0.32,-0.036C0.346,-0.036 0.37,-0.042 0.392,-0.053C0.414,-0.065 0.431,-0.082 0.442,-0.104C0.454,-0.126 0.46,-0.15 0.46,-0.177C0.46,-0.208 0.453,-0.236 0.438,-0.26C0.424,-0.285 0.404,-0.302 0.379,-0.312C0.354,-0.322 0.317,-0.326 0.267,-0.326Z" style="fill:white;fill-rule:nonzero;"/>
                                </g>
                                <g transform="matrix(12,0,0,12,22.1543,0)">
                                    <path d="M0.631,-0.232L0.606,-0L0.019,-0L0.019,-0.018L0.041,-0.018C0.06,-0.018 0.075,-0.021 0.087,-0.028C0.095,-0.033 0.102,-0.041 0.106,-0.052C0.11,-0.06 0.112,-0.08 0.112,-0.113L0.112,-0.549C0.112,-0.583 0.11,-0.604 0.106,-0.612C0.103,-0.621 0.096,-0.628 0.085,-0.635C0.074,-0.641 0.059,-0.644 0.041,-0.644L0.019,-0.644L0.019,-0.662L0.372,-0.662L0.372,-0.644L0.343,-0.644C0.324,-0.644 0.308,-0.641 0.296,-0.634C0.288,-0.629 0.281,-0.621 0.276,-0.61C0.273,-0.603 0.271,-0.582 0.271,-0.549L0.271,-0.127C0.271,-0.093 0.273,-0.072 0.277,-0.062C0.281,-0.053 0.288,-0.046 0.3,-0.042C0.308,-0.039 0.328,-0.037 0.359,-0.037L0.414,-0.037C0.449,-0.037 0.479,-0.043 0.502,-0.056C0.525,-0.068 0.546,-0.088 0.563,-0.114C0.58,-0.141 0.596,-0.18 0.611,-0.232L0.631,-0.232Z" style="fill:white;fill-rule:nonzero;"/>
                                </g>
                                <g transform="matrix(12,0,0,12,30.5801,0)">
                                    <path d="M0.272,-0.624L0.272,-0.354L0.286,-0.354C0.328,-0.354 0.358,-0.368 0.377,-0.394C0.396,-0.42 0.408,-0.459 0.413,-0.511L0.432,-0.511L0.432,-0.164L0.413,-0.164C0.409,-0.202 0.401,-0.233 0.388,-0.257C0.376,-0.281 0.361,-0.297 0.345,-0.305C0.328,-0.314 0.304,-0.318 0.272,-0.318L0.272,-0.131C0.272,-0.095 0.274,-0.073 0.277,-0.064C0.28,-0.056 0.286,-0.05 0.294,-0.044C0.303,-0.039 0.317,-0.037 0.335,-0.037L0.375,-0.037C0.437,-0.037 0.486,-0.051 0.524,-0.08C0.561,-0.108 0.588,-0.152 0.604,-0.21L0.622,-0.21L0.592,-0L0.02,-0L0.02,-0.018L0.042,-0.018C0.061,-0.018 0.077,-0.021 0.088,-0.028C0.097,-0.033 0.103,-0.041 0.108,-0.052C0.111,-0.06 0.113,-0.08 0.113,-0.113L0.113,-0.549C0.113,-0.579 0.112,-0.597 0.111,-0.604C0.108,-0.615 0.102,-0.624 0.093,-0.63C0.08,-0.639 0.063,-0.644 0.042,-0.644L0.02,-0.644L0.02,-0.662L0.574,-0.662L0.574,-0.466L0.556,-0.466C0.546,-0.514 0.533,-0.549 0.516,-0.569C0.499,-0.59 0.475,-0.605 0.443,-0.615C0.425,-0.621 0.391,-0.624 0.341,-0.624L0.272,-0.624Z" style="fill:white;fill-rule:nonzero;"/>
                                </g>
                            </g>
                        </g>
                    </g>
                </g>
            </g>
        </g>
    </g>
    <defs>
        <linearGradient id="_Linear1" x1="0" y1="0" x2="1" y2="0" gradientUnits="userSpaceOnUse" gradientTransform="matrix(2.44929e-15,40,-40,2.44929e-15,20,0)"><stop offset="0" style="stop-color:rgb(244,247,251);stop-opacity:1"/><stop offset="1" style="stop-color:rgb(244,247,251);stop-opacity:0.6"/></linearGradient>
        <linearGradient id="_Linear2" x1="0" y1="0" x2="1" y2="0" gradientUnits="userSpaceOnUse" gradientTransform="matrix(2.21741,217.305,-217.305,2.21741,1756.63,1785.23)"><stop offset="0" style="stop-color:rgb(244,247,251);stop-opacity:1"/><stop offset="1" style="stop-color:rgb(244,247,251);stop-opacity:0.6"/></linearGradient>
        <linearGradient id="_Linear3" x1="0" y1="0" x2="1" y2="0" gradientUnits="userSpaceOnUse" gradientTransform="matrix(3.33905,214.367,-214.367,3.33905,1710.35,1784.61)"><stop offset="0" style="stop-color:rgb(244,247,251);stop-opacity:1"/><stop offset="1" style="stop-color:rgb(244,247,251);stop-opacity:0.6"/></linearGradient>
    </defs>
</svg>
